
<svg width="11" height="14" viewBox="0 0 13 16" fill="none" xmlns="http://www.w3.org/2000/svg">
    <path id="Arrow 9" d="M12.7071 8.70699C13.0976 8.31646 13.0976 7.6833 12.7071 7.29277L6.34315 0.92881C5.95262 0.538286 5.31946 0.538286 4.92893 0.92881C4.53841 1.31933 4.53841 1.9525 4.92893 2.34302L10.5858 7.99988L4.92893 13.6567C4.53841 14.0473 4.53841 14.6804 4.92893 15.0709C5.31946 15.4615 5.95262 15.4615 6.34315 15.0709L12.7071 8.70699ZM-3.39767e-08 8.99988L1.5 8.99988L1.5 6.99988L3.39767e-08 6.99988L-3.39767e-08 8.99988ZM4.5 8.99988L7.5 8.99988L7.5 6.99988L4.5 6.99988L4.5 8.99988ZM10.5 8.99988L12 8.99988L12 6.99988L10.5 6.99988L10.5 8.99988ZM12.7071 8.70699C13.0976 8.31646 13.0976 7.6833 12.7071 7.29277L6.34315 0.92881C5.95262 0.538286 5.31946 0.538286 4.92893 0.92881C4.53841 1.31933 4.53841 1.9525 4.92893 2.34302L10.5858 7.99988L4.92893 13.6567C4.53841 14.0473 4.53841 14.6804 4.92893 15.0709C5.31946 15.4615 5.95262 15.4615 6.34315 15.0709L12.7071 8.70699ZM-3.39767e-08 8.99988L1.5 8.99988L1.5 6.99988L3.39767e-08 6.99988L-3.39767e-08 8.99988ZM4.5 8.99988L7.5 8.99988L7.5 6.99988L4.5 6.99988L4.5 8.99988ZM10.5 8.99988L12 8.99988L12 6.99988L10.5 6.99988L10.5 8.99988Z" fill="white" />
</svg>
