<svg
width="30"
height="30"
viewBox="0 0 44 44"
fill="none"
xmlns="http://www.w3.org/2000/svg"
>
<circle
    cx="15.3714"
    cy="15.3714"
    r="15.1214"
    transform="matrix(-0.707107 0.707107 0.707107 0.707107 21.7383 0)"
    fill="#A61517"
    stroke="#878787"
    strokeWidth="0.5"
/>
<path
    d="M15.2242 21.8591C14.8728 21.5076 14.8728 20.9377 15.2242 20.5863L20.9518 14.8587C21.3033 14.5072 21.8731 14.5072 22.2246 14.8587C22.5761 15.2102 22.5761 15.78 22.2246 16.1315L17.1334 21.2227L22.2246 26.3138C22.5761 26.6653 22.5761 27.2351 22.2246 27.5866C21.8731 27.9381 21.3033 27.9381 20.9518 27.5866L15.2242 21.8591ZM27.6152 22.1227L15.8606 22.1227L15.8606 20.3227L27.6152 20.3227L27.6152 22.1227Z"
    fill="white"
/>
</svg>