<svg width="11" height="14" viewBox="0 0 13 16" fill="none" xmlns="http://www.w3.org/2000/svg">
    <path id="Arrow 11" d="M0.292893 8.70699C-0.0976311 8.31646 -0.0976311 7.6833 0.292893 7.29277L6.65685 0.92881C7.04738 0.538286 7.68054 0.538286 8.07107 0.92881C8.46159 1.31933 8.46159 1.9525 8.07107 2.34302L2.41421 7.99988L8.07107 13.6567C8.46159 14.0473 8.46159 14.6804 8.07107 15.0709C7.68054 15.4615 7.04738 15.4615 6.65685 15.0709L0.292893 8.70699ZM13 8.99988L11.5 8.99988L11.5 6.99988L13 6.99988L13 8.99988ZM8.5 8.99988L5.5 8.99988L5.5 6.99988L8.5 6.99988L8.5 8.99988ZM2.5 8.99988L1 8.99988L1 6.99988L2.5 6.99988L2.5 8.99988ZM0.292893 8.70699C-0.0976311 8.31646 -0.0976311 7.6833 0.292893 7.29277L6.65685 0.92881C7.04738 0.538286 7.68054 0.538286 8.07107 0.92881C8.46159 1.31933 8.46159 1.9525 8.07107 2.34302L2.41421 7.99988L8.07107 13.6567C8.46159 14.0473 8.46159 14.6804 8.07107 15.0709C7.68054 15.4615 7.04738 15.4615 6.65685 15.0709L0.292893 8.70699ZM13 8.99988L11.5 8.99988L11.5 6.99988L13 6.99988L13 8.99988ZM8.5 8.99988L5.5 8.99988L5.5 6.99988L8.5 6.99988L8.5 8.99988ZM2.5 8.99988L1 8.99988L1 6.99988L2.5 6.99988L2.5 8.99988Z" fill="black" fill-opacity="0.3" />
</svg>