<svg width="641" height="70" viewBox="0 0 641 70" fill="none" xmlns="http://www.w3.org/2000/svg">
<path d="M608.658 16.784L609.027 16.4255L608.658 16.0671L605.307 12.807L604.958 12.4679L604.609 12.807L601.257 16.0671L600.889 16.4255L601.257 16.784L604.609 20.0441L604.958 20.3832L605.307 20.0441L608.658 16.784ZM604.958 0.697504L621.008 16.3091L604.956 32.0597L588.821 16.3931L604.958 0.697504Z" stroke="white"/>
<path d="M586.388 19.6508L592.544 25.4266L586.373 31.211L580.214 25.438L586.388 19.6508Z" stroke="white"/>
<path d="M608.637 35.0932L624.225 19.667L639.973 35.0902L621.809 52.8787C621.878 52.1791 621.887 51.3949 621.763 50.5996L608.637 35.0932ZM608.637 35.0932L619.506 46.0317L619.52 46.045C619.536 46.0596 619.558 46.0802 619.584 46.1066C619.638 46.1595 619.712 46.2359 619.801 46.3356C619.979 46.5349 620.218 46.828 620.47 47.2122C620.974 47.9805 621.533 49.1178 621.763 50.5995L608.637 35.0932ZM620.594 34.7491L620.229 35.1063L620.594 35.4635L623.867 38.6684L624.216 39.0111L624.566 38.6684L627.839 35.4635L628.204 35.1063L627.839 34.7491L624.566 31.5442L624.216 31.2016L623.867 31.5442L620.594 34.7491Z" stroke="white"/>
<path d="M615.545 47.9698L615.545 47.9699L615.552 47.977L615.553 47.9771L615.553 47.9773L615.553 47.9773L615.553 47.9775L615.556 47.9802L615.571 47.9949C615.585 48.0086 615.606 48.0301 615.634 48.059C615.69 48.1167 615.773 48.2039 615.872 48.3176C616.072 48.5454 616.341 48.8774 616.614 49.2903C617.164 50.1229 617.704 51.2484 617.762 52.4921C617.864 54.6973 617.346 56.5992 616.88 57.8297L605.441 69.1244L589.679 53.56L599.135 44.2226L599.495 43.8669L599.135 43.5111L589.676 34.1715L595.634 28.2889L615.545 47.9698ZM605.059 57.1571L605.347 57.4416L605.685 57.219L605.41 56.8013C605.685 57.219 605.685 57.2188 605.685 57.2187L605.686 57.2183L605.687 57.2176L605.69 57.2159L605.696 57.2114L605.716 57.1977C605.732 57.1865 605.753 57.1711 605.778 57.1515C605.829 57.1124 605.899 57.0562 605.98 56.9822C606.142 56.8344 606.354 56.6142 606.565 56.3161C606.989 55.7164 607.404 54.807 607.404 53.56C607.404 52.313 606.989 51.4037 606.565 50.8039C606.354 50.5058 606.142 50.2857 605.98 50.1379C605.899 50.0639 605.829 50.0077 605.778 49.9685C605.753 49.9489 605.732 49.9336 605.716 49.9224L605.696 49.9087L605.69 49.9041L605.687 49.9024L605.686 49.9017L605.685 49.9014C605.685 49.9012 605.685 49.9011 605.41 50.3187L605.685 49.9011L605.347 49.6785L605.059 49.9629L601.776 53.2042L601.416 53.56L601.776 53.9158L605.059 57.1571Z" stroke="white"/>
<path d="M586.475 37.095L593.431 44.0486L586.46 51.0168L570.707 35.2686L577.686 28.2918L583.683 34.2449L582.064 35.8635L581.71 36.2171L582.064 36.5707L584.178 38.684L584.532 39.0373L584.885 38.684L586.475 37.095Z" stroke="white"/>
<path d="M395.658 16.784L396.027 16.4255L395.658 16.0671L392.307 12.807L391.958 12.4679L391.609 12.807L388.257 16.0671L387.889 16.4255L388.257 16.784L391.609 20.0441L391.958 20.3832L392.307 20.0441L395.658 16.784ZM391.958 0.697504L408.008 16.3091L391.956 32.0597L375.821 16.3931L391.958 0.697504Z" stroke="white"/>
<path d="M373.388 19.6508L379.544 25.4266L373.373 31.211L367.214 25.438L373.388 19.6508Z" stroke="white"/>
<path d="M395.637 35.0932L411.225 19.667L426.973 35.0902L408.809 52.8787C408.878 52.1791 408.887 51.3949 408.763 50.5996L395.637 35.0932ZM395.637 35.0932L406.506 46.0317L406.52 46.045C406.536 46.0596 406.558 46.0802 406.584 46.1066C406.638 46.1595 406.712 46.2359 406.801 46.3356C406.979 46.5349 407.218 46.828 407.47 47.2122C407.974 47.9805 408.533 49.1178 408.763 50.5995L395.637 35.0932ZM407.594 34.7491L407.229 35.1063L407.594 35.4635L410.867 38.6684L411.216 39.0111L411.566 38.6684L414.839 35.4635L415.204 35.1063L414.839 34.7491L411.566 31.5442L411.216 31.2016L410.867 31.5442L407.594 34.7491Z" stroke="white"/>
<path d="M402.545 47.9698L402.545 47.9699L402.552 47.977L402.553 47.9771L402.553 47.9773L402.553 47.9773L402.553 47.9775L402.556 47.9802L402.571 47.9949C402.585 48.0086 402.606 48.0301 402.634 48.059C402.69 48.1167 402.773 48.2039 402.872 48.3176C403.072 48.5454 403.341 48.8774 403.614 49.2903C404.164 50.1229 404.704 51.2484 404.762 52.4921C404.864 54.6973 404.346 56.5992 403.88 57.8297L392.441 69.1244L376.679 53.56L386.135 44.2226L386.495 43.8669L386.135 43.5111L376.676 34.1715L382.634 28.2889L402.545 47.9698ZM392.059 57.1571L392.347 57.4416L392.685 57.219L392.41 56.8013C392.685 57.219 392.685 57.2188 392.685 57.2187L392.686 57.2183L392.687 57.2176L392.69 57.2159L392.696 57.2114L392.716 57.1977C392.732 57.1865 392.753 57.1711 392.778 57.1515C392.829 57.1124 392.899 57.0562 392.98 56.9822C393.142 56.8344 393.354 56.6142 393.565 56.3161C393.989 55.7164 394.404 54.807 394.404 53.56C394.404 52.313 393.989 51.4037 393.565 50.8039C393.354 50.5058 393.142 50.2857 392.98 50.1379C392.899 50.0639 392.829 50.0077 392.778 49.9685C392.753 49.9489 392.732 49.9336 392.716 49.9224L392.696 49.9087L392.69 49.9041L392.687 49.9024L392.686 49.9017L392.685 49.9014C392.685 49.9012 392.685 49.9011 392.41 50.3187L392.685 49.9011L392.347 49.6785L392.059 49.9629L388.776 53.2042L388.416 53.56L388.776 53.9158L392.059 57.1571Z" stroke="white"/>
<path d="M373.475 37.095L380.431 44.0486L373.46 51.0168L357.707 35.2686L364.686 28.2918L370.683 34.2449L369.064 35.8635L368.71 36.2171L369.064 36.5707L371.178 38.684L371.532 39.0373L371.885 38.684L373.475 37.095Z" stroke="white"/>
<path d="M180.658 16.784L181.027 16.4255L180.658 16.0671L177.307 12.807L176.958 12.4679L176.609 12.807L173.257 16.0671L172.889 16.4255L173.257 16.784L176.609 20.0441L176.958 20.3832L177.307 20.0441L180.658 16.784ZM176.958 0.697504L193.008 16.3091L176.956 32.0597L160.821 16.3931L176.958 0.697504Z" stroke="white"/>
<path d="M158.388 19.6508L164.544 25.4266L158.373 31.211L152.214 25.438L158.388 19.6508Z" stroke="white"/>
<path d="M180.637 35.0932L196.225 19.667L211.973 35.0902L193.809 52.8787C193.878 52.1791 193.887 51.3949 193.763 50.5996L180.637 35.0932ZM180.637 35.0932L191.506 46.0317L191.52 46.045C191.536 46.0596 191.558 46.0802 191.584 46.1066C191.638 46.1595 191.712 46.2359 191.801 46.3356C191.979 46.5349 192.218 46.828 192.47 47.2122C192.974 47.9805 193.533 49.1178 193.763 50.5995L180.637 35.0932ZM192.594 34.7491L192.229 35.1063L192.594 35.4635L195.867 38.6684L196.216 39.0111L196.566 38.6684L199.839 35.4635L200.204 35.1063L199.839 34.7491L196.566 31.5442L196.216 31.2016L195.867 31.5442L192.594 34.7491Z" stroke="white"/>
<path d="M187.545 47.9698L187.545 47.9699L187.552 47.977L187.553 47.9771L187.553 47.9773L187.553 47.9773L187.553 47.9775L187.556 47.9802L187.571 47.9949C187.585 48.0086 187.606 48.0301 187.634 48.059C187.69 48.1167 187.773 48.2039 187.872 48.3176C188.072 48.5454 188.341 48.8774 188.614 49.2903C189.164 50.1229 189.704 51.2484 189.762 52.4921C189.864 54.6973 189.346 56.5992 188.88 57.8297L177.441 69.1244L161.679 53.56L171.135 44.2226L171.495 43.8669L171.135 43.5111L161.676 34.1715L167.634 28.2889L187.545 47.9698ZM177.059 57.1571L177.347 57.4416L177.685 57.219L177.41 56.8013C177.685 57.219 177.685 57.2188 177.685 57.2187L177.686 57.2183L177.687 57.2176L177.69 57.2159L177.696 57.2114L177.716 57.1977C177.732 57.1865 177.753 57.1711 177.778 57.1515C177.829 57.1124 177.899 57.0562 177.98 56.9822C178.142 56.8344 178.354 56.6142 178.565 56.3161C178.989 55.7164 179.404 54.807 179.404 53.56C179.404 52.313 178.989 51.4037 178.565 50.8039C178.354 50.5058 178.142 50.2857 177.98 50.1379C177.899 50.0639 177.829 50.0077 177.778 49.9685C177.753 49.9489 177.732 49.9336 177.716 49.9224L177.696 49.9087L177.69 49.9041L177.687 49.9024L177.686 49.9017L177.685 49.9014C177.685 49.9012 177.685 49.9011 177.41 50.3187L177.685 49.9011L177.347 49.6785L177.059 49.9629L173.776 53.2042L173.416 53.56L173.776 53.9158L177.059 57.1571Z" stroke="white"/>
<path d="M158.475 37.095L165.431 44.0486L158.46 51.0168L142.707 35.2686L149.686 28.2918L155.683 34.2449L154.064 35.8635L153.71 36.2171L154.064 36.5707L156.178 38.684L156.532 39.0373L156.885 38.684L158.475 37.095Z" stroke="white"/>
<path d="M537.658 16.784L538.027 16.4255L537.658 16.0671L534.307 12.807L533.958 12.4679L533.609 12.807L530.257 16.0671L529.889 16.4255L530.257 16.784L533.609 20.0441L533.958 20.3832L534.307 20.0441L537.658 16.784ZM533.958 0.697504L550.008 16.3091L533.956 32.0597L517.821 16.3931L533.958 0.697504Z" stroke="white"/>
<path d="M515.388 19.6508L521.544 25.4266L515.373 31.211L509.214 25.438L515.388 19.6508Z" stroke="white"/>
<path d="M537.637 35.0932L553.225 19.667L568.973 35.0902L550.809 52.8787C550.878 52.1791 550.887 51.3949 550.763 50.5996L537.637 35.0932ZM537.637 35.0932L548.506 46.0317L548.52 46.045C548.536 46.0596 548.558 46.0802 548.584 46.1066C548.638 46.1595 548.712 46.2359 548.801 46.3356C548.979 46.5349 549.218 46.828 549.47 47.2122C549.974 47.9805 550.533 49.1178 550.763 50.5995L537.637 35.0932ZM549.594 34.7491L549.229 35.1063L549.594 35.4635L552.867 38.6684L553.216 39.0111L553.566 38.6684L556.839 35.4635L557.204 35.1063L556.839 34.7491L553.566 31.5442L553.216 31.2016L552.867 31.5442L549.594 34.7491Z" stroke="white"/>
<path d="M544.545 47.9698L544.545 47.9699L544.552 47.977L544.553 47.9771L544.553 47.9773L544.553 47.9773L544.553 47.9775L544.556 47.9802L544.571 47.9949C544.585 48.0086 544.606 48.0301 544.634 48.059C544.69 48.1167 544.773 48.2039 544.872 48.3176C545.072 48.5454 545.341 48.8774 545.614 49.2903C546.164 50.1229 546.704 51.2484 546.762 52.4921C546.864 54.6973 546.346 56.5992 545.88 57.8297L534.441 69.1244L518.679 53.56L528.135 44.2226L528.495 43.8669L528.135 43.5111L518.676 34.1715L524.634 28.2889L544.545 47.9698ZM534.059 57.1571L534.347 57.4416L534.685 57.219L534.41 56.8013C534.685 57.219 534.685 57.2188 534.685 57.2187L534.686 57.2183L534.687 57.2176L534.69 57.2159L534.696 57.2114L534.716 57.1977C534.732 57.1865 534.753 57.1711 534.778 57.1515C534.829 57.1124 534.899 57.0562 534.98 56.9822C535.142 56.8344 535.354 56.6142 535.565 56.3161C535.989 55.7164 536.404 54.807 536.404 53.56C536.404 52.313 535.989 51.4037 535.565 50.8039C535.354 50.5058 535.142 50.2857 534.98 50.1379C534.899 50.0639 534.829 50.0077 534.778 49.9685C534.753 49.9489 534.732 49.9336 534.716 49.9224L534.696 49.9087L534.69 49.9041L534.687 49.9024L534.686 49.9017L534.685 49.9014C534.685 49.9012 534.685 49.9011 534.41 50.3187L534.685 49.9011L534.347 49.6785L534.059 49.9629L530.776 53.2042L530.416 53.56L530.776 53.9158L534.059 57.1571Z" stroke="white"/>
<path d="M515.475 37.095L522.431 44.0486L515.46 51.0168L499.707 35.2686L506.686 28.2918L512.683 34.2449L511.064 35.8635L510.71 36.2171L511.064 36.5707L513.178 38.684L513.532 39.0373L513.885 38.684L515.475 37.095Z" stroke="white"/>
<path d="M324.658 16.784L325.027 16.4255L324.658 16.0671L321.307 12.807L320.958 12.4679L320.609 12.807L317.257 16.0671L316.889 16.4255L317.257 16.784L320.609 20.0441L320.958 20.3832L321.307 20.0441L324.658 16.784ZM320.958 0.697504L337.008 16.3091L320.956 32.0597L304.821 16.3931L320.958 0.697504Z" stroke="white"/>
<path d="M302.388 19.6508L308.544 25.4266L302.373 31.211L296.214 25.438L302.388 19.6508Z" stroke="white"/>
<path d="M324.637 35.0932L340.225 19.667L355.973 35.0902L337.809 52.8787C337.878 52.1791 337.887 51.3949 337.763 50.5996L324.637 35.0932ZM324.637 35.0932L335.506 46.0317L335.52 46.045C335.536 46.0596 335.558 46.0802 335.584 46.1066C335.638 46.1595 335.712 46.2359 335.801 46.3356C335.979 46.5349 336.218 46.828 336.47 47.2122C336.974 47.9805 337.533 49.1178 337.763 50.5995L324.637 35.0932ZM336.594 34.7491L336.229 35.1063L336.594 35.4635L339.867 38.6684L340.216 39.0111L340.566 38.6684L343.839 35.4635L344.204 35.1063L343.839 34.7491L340.566 31.5442L340.216 31.2016L339.867 31.5442L336.594 34.7491Z" stroke="white"/>
<path d="M331.545 47.9698L331.545 47.9699L331.552 47.977L331.553 47.9771L331.553 47.9773L331.553 47.9773L331.553 47.9775L331.556 47.9802L331.571 47.9949C331.585 48.0086 331.606 48.0301 331.634 48.059C331.69 48.1167 331.773 48.2039 331.872 48.3176C332.072 48.5454 332.341 48.8774 332.614 49.2903C333.164 50.1229 333.704 51.2484 333.762 52.4921C333.864 54.6973 333.346 56.5992 332.88 57.8297L321.441 69.1244L305.679 53.56L315.135 44.2226L315.495 43.8669L315.135 43.5111L305.676 34.1715L311.634 28.2889L331.545 47.9698ZM321.059 57.1571L321.347 57.4416L321.685 57.219L321.41 56.8013C321.685 57.219 321.685 57.2188 321.685 57.2187L321.686 57.2183L321.687 57.2176L321.69 57.2159L321.696 57.2114L321.716 57.1977C321.732 57.1865 321.753 57.1711 321.778 57.1515C321.829 57.1124 321.899 57.0562 321.98 56.9822C322.142 56.8344 322.354 56.6142 322.565 56.3161C322.989 55.7164 323.404 54.807 323.404 53.56C323.404 52.313 322.989 51.4037 322.565 50.8039C322.354 50.5058 322.142 50.2857 321.98 50.1379C321.899 50.0639 321.829 50.0077 321.778 49.9685C321.753 49.9489 321.732 49.9336 321.716 49.9224L321.696 49.9087L321.69 49.9041L321.687 49.9024L321.686 49.9017L321.685 49.9014C321.685 49.9012 321.685 49.9011 321.41 50.3187L321.685 49.9011L321.347 49.6785L321.059 49.9629L317.776 53.2042L317.416 53.56L317.776 53.9158L321.059 57.1571Z" stroke="white"/>
<path d="M302.475 37.095L309.431 44.0486L302.46 51.0168L286.707 35.2686L293.686 28.2918L299.683 34.2449L298.064 35.8635L297.71 36.2171L298.064 36.5707L300.178 38.684L300.532 39.0373L300.885 38.684L302.475 37.095Z" stroke="white"/>
<path d="M109.658 16.784L110.027 16.4255L109.658 16.0671L106.307 12.807L105.958 12.4679L105.609 12.807L102.257 16.0671L101.889 16.4255L102.257 16.784L105.609 20.0441L105.958 20.3832L106.307 20.0441L109.658 16.784ZM105.958 0.697504L122.008 16.3091L105.956 32.0597L89.821 16.3931L105.958 0.697504Z" stroke="white"/>
<path d="M87.3882 19.6508L93.5445 25.4266L87.373 31.211L81.2136 25.438L87.3882 19.6508Z" stroke="white"/>
<path d="M109.637 35.0932L125.225 19.667L140.973 35.0902L122.809 52.8787C122.878 52.1791 122.887 51.3949 122.763 50.5996L109.637 35.0932ZM109.637 35.0932L120.506 46.0317L120.52 46.045C120.536 46.0596 120.558 46.0802 120.584 46.1066C120.638 46.1595 120.712 46.2359 120.801 46.3356C120.979 46.5349 121.218 46.828 121.47 47.2122C121.974 47.9805 122.533 49.1178 122.763 50.5995L109.637 35.0932ZM121.594 34.7491L121.229 35.1063L121.594 35.4635L124.867 38.6684L125.216 39.0111L125.566 38.6684L128.839 35.4635L129.204 35.1063L128.839 34.7491L125.566 31.5442L125.216 31.2016L124.867 31.5442L121.594 34.7491Z" stroke="white"/>
<path d="M116.545 47.9698L116.545 47.9699L116.552 47.977L116.553 47.9771L116.553 47.9773L116.553 47.9773L116.553 47.9775L116.556 47.9802L116.571 47.9949C116.585 48.0086 116.606 48.0301 116.634 48.059C116.69 48.1167 116.773 48.2039 116.872 48.3176C117.072 48.5454 117.341 48.8774 117.614 49.2903C118.164 50.1229 118.704 51.2484 118.762 52.4921C118.864 54.6973 118.346 56.5992 117.88 57.8297L106.441 69.1244L90.6786 53.56L100.135 44.2226L100.495 43.8669L100.135 43.5111L90.6765 34.1715L96.6339 28.2889L116.545 47.9698ZM106.059 57.1571L106.347 57.4416L106.685 57.219L106.41 56.8013C106.685 57.219 106.685 57.2188 106.685 57.2187L106.686 57.2183L106.687 57.2176L106.69 57.2159L106.696 57.2114L106.716 57.1977C106.732 57.1865 106.753 57.1711 106.778 57.1515C106.829 57.1124 106.899 57.0562 106.98 56.9822C107.142 56.8344 107.354 56.6142 107.565 56.3161C107.989 55.7164 108.404 54.807 108.404 53.56C108.404 52.313 107.989 51.4037 107.565 50.8039C107.354 50.5058 107.142 50.2857 106.98 50.1379C106.899 50.0639 106.829 50.0077 106.778 49.9685C106.753 49.9489 106.732 49.9336 106.716 49.9224L106.696 49.9087L106.69 49.9041L106.687 49.9024L106.686 49.9017L106.685 49.9014C106.685 49.9012 106.685 49.9011 106.41 50.3187L106.685 49.9011L106.347 49.6785L106.059 49.9629L102.776 53.2042L102.416 53.56L102.776 53.9158L106.059 57.1571Z" stroke="white"/>
<path d="M87.4748 37.095L94.4305 44.0486L87.4602 51.0168L71.7072 35.2686L78.6862 28.2918L84.6832 34.2449L83.0642 35.8635L82.7105 36.2171L83.0642 36.5707L85.1781 38.684L85.5316 39.0373L85.8851 38.684L87.4748 37.095Z" stroke="white"/>
<path d="M466.658 16.784L467.027 16.4255L466.658 16.0671L463.307 12.807L462.958 12.4679L462.609 12.807L459.257 16.0671L458.889 16.4255L459.257 16.784L462.609 20.0441L462.958 20.3832L463.307 20.0441L466.658 16.784ZM462.958 0.697504L479.008 16.3091L462.956 32.0597L446.821 16.3931L462.958 0.697504Z" stroke="white"/>
<path d="M444.388 19.6508L450.544 25.4266L444.373 31.211L438.214 25.438L444.388 19.6508Z" stroke="white"/>
<path d="M466.637 35.0932L482.225 19.667L497.973 35.0902L479.809 52.8787C479.878 52.1791 479.887 51.3949 479.763 50.5996L466.637 35.0932ZM466.637 35.0932L477.506 46.0317L477.52 46.045C477.536 46.0596 477.558 46.0802 477.584 46.1066C477.638 46.1595 477.712 46.2359 477.801 46.3356C477.979 46.5349 478.218 46.828 478.47 47.2122C478.974 47.9805 479.533 49.1178 479.763 50.5995L466.637 35.0932ZM478.594 34.7491L478.229 35.1063L478.594 35.4635L481.867 38.6684L482.216 39.0111L482.566 38.6684L485.839 35.4635L486.204 35.1063L485.839 34.7491L482.566 31.5442L482.216 31.2016L481.867 31.5442L478.594 34.7491Z" stroke="white"/>
<path d="M473.545 47.9698L473.545 47.9699L473.552 47.977L473.553 47.9771L473.553 47.9773L473.553 47.9773L473.553 47.9775L473.556 47.9802L473.571 47.9949C473.585 48.0086 473.606 48.0301 473.634 48.059C473.69 48.1167 473.773 48.2039 473.872 48.3176C474.072 48.5454 474.341 48.8774 474.614 49.2903C475.164 50.1229 475.704 51.2484 475.762 52.4921C475.864 54.6973 475.346 56.5992 474.88 57.8297L463.441 69.1244L447.679 53.56L457.135 44.2226L457.495 43.8669L457.135 43.5111L447.676 34.1715L453.634 28.2889L473.545 47.9698ZM463.059 57.1571L463.347 57.4416L463.685 57.219L463.41 56.8013C463.685 57.219 463.685 57.2188 463.685 57.2187L463.686 57.2183L463.687 57.2176L463.69 57.2159L463.696 57.2114L463.716 57.1977C463.732 57.1865 463.753 57.1711 463.778 57.1515C463.829 57.1124 463.899 57.0562 463.98 56.9822C464.142 56.8344 464.354 56.6142 464.565 56.3161C464.989 55.7164 465.404 54.807 465.404 53.56C465.404 52.313 464.989 51.4037 464.565 50.8039C464.354 50.5058 464.142 50.2857 463.98 50.1379C463.899 50.0639 463.829 50.0077 463.778 49.9685C463.753 49.9489 463.732 49.9336 463.716 49.9224L463.696 49.9087L463.69 49.9041L463.687 49.9024L463.686 49.9017L463.685 49.9014C463.685 49.9012 463.685 49.9011 463.41 50.3187L463.685 49.9011L463.347 49.6785L463.059 49.9629L459.776 53.2042L459.416 53.56L459.776 53.9158L463.059 57.1571Z" stroke="white"/>
<path d="M444.475 37.095L451.431 44.0486L444.46 51.0168L428.707 35.2686L435.686 28.2918L441.683 34.2449L440.064 35.8635L439.71 36.2171L440.064 36.5707L442.178 38.684L442.532 39.0373L442.885 38.684L444.475 37.095Z" stroke="white"/>
<path d="M253.658 16.784L254.027 16.4255L253.658 16.0671L250.307 12.807L249.958 12.4679L249.609 12.807L246.257 16.0671L245.889 16.4255L246.257 16.784L249.609 20.0441L249.958 20.3832L250.307 20.0441L253.658 16.784ZM249.958 0.697504L266.008 16.3091L249.956 32.0597L233.821 16.3931L249.958 0.697504Z" stroke="white"/>
<path d="M231.388 19.6508L237.544 25.4266L231.373 31.211L225.214 25.438L231.388 19.6508Z" stroke="white"/>
<path d="M253.637 35.0932L269.225 19.667L284.973 35.0902L266.809 52.8787C266.878 52.1791 266.887 51.3949 266.763 50.5996L253.637 35.0932ZM253.637 35.0932L264.506 46.0317L264.52 46.045C264.536 46.0596 264.558 46.0802 264.584 46.1066C264.638 46.1595 264.712 46.2359 264.801 46.3356C264.979 46.5349 265.218 46.828 265.47 47.2122C265.974 47.9805 266.533 49.1178 266.763 50.5995L253.637 35.0932ZM265.594 34.7491L265.229 35.1063L265.594 35.4635L268.867 38.6684L269.216 39.0111L269.566 38.6684L272.839 35.4635L273.204 35.1063L272.839 34.7491L269.566 31.5442L269.216 31.2016L268.867 31.5442L265.594 34.7491Z" stroke="white"/>
<path d="M260.545 47.9698L260.545 47.9699L260.552 47.977L260.553 47.9771L260.553 47.9773L260.553 47.9773L260.553 47.9775L260.556 47.9802L260.571 47.9949C260.585 48.0086 260.606 48.0301 260.634 48.059C260.69 48.1167 260.773 48.2039 260.872 48.3176C261.072 48.5454 261.341 48.8774 261.614 49.2903C262.164 50.1229 262.704 51.2484 262.762 52.4921C262.864 54.6973 262.346 56.5992 261.88 57.8297L250.441 69.1244L234.679 53.56L244.135 44.2226L244.495 43.8669L244.135 43.5111L234.676 34.1715L240.634 28.2889L260.545 47.9698ZM250.059 57.1571L250.347 57.4416L250.685 57.219L250.41 56.8013C250.685 57.219 250.685 57.2188 250.685 57.2187L250.686 57.2183L250.687 57.2176L250.69 57.2159L250.696 57.2114L250.716 57.1977C250.732 57.1865 250.753 57.1711 250.778 57.1515C250.829 57.1124 250.899 57.0562 250.98 56.9822C251.142 56.8344 251.354 56.6142 251.565 56.3161C251.989 55.7164 252.404 54.807 252.404 53.56C252.404 52.313 251.989 51.4037 251.565 50.8039C251.354 50.5058 251.142 50.2857 250.98 50.1379C250.899 50.0639 250.829 50.0077 250.778 49.9685C250.753 49.9489 250.732 49.9336 250.716 49.9224L250.696 49.9087L250.69 49.9041L250.687 49.9024L250.686 49.9017L250.685 49.9014C250.685 49.9012 250.685 49.9011 250.41 50.3187L250.685 49.9011L250.347 49.6785L250.059 49.9629L246.776 53.2042L246.416 53.56L246.776 53.9158L250.059 57.1571Z" stroke="white"/>
<path d="M231.475 37.095L238.431 44.0486L231.46 51.0168L215.707 35.2686L222.686 28.2918L228.683 34.2449L227.064 35.8635L226.71 36.2171L227.064 36.5707L229.178 38.684L229.532 39.0373L229.885 38.684L231.475 37.095Z" stroke="white"/>
<path d="M38.6583 16.784L39.0268 16.4255L38.6583 16.0671L35.3065 12.807L34.9579 12.4679L34.6093 12.807L31.2575 16.0671L30.889 16.4255L31.2575 16.784L34.6093 20.0441L34.9579 20.3832L35.3065 20.0441L38.6583 16.784ZM34.9579 0.697504L51.0084 16.3091L34.9561 32.0597L18.821 16.3931L34.9579 0.697504Z" stroke="white"/>
<path d="M16.3882 19.6508L22.5445 25.4266L16.373 31.211L10.2136 25.438L16.3882 19.6508Z" stroke="white"/>
<path d="M38.6375 35.0932L54.2248 19.667L69.9735 35.0902L51.8093 52.8787C51.8783 52.1791 51.887 51.3949 51.7634 50.5996L38.6375 35.0932ZM38.6375 35.0932L49.506 46.0317L49.5204 46.045C49.536 46.0596 49.5576 46.0802 49.5843 46.1066C49.6377 46.1595 49.7119 46.2359 49.8011 46.3356C49.9792 46.5349 50.2179 46.828 50.4698 47.2122C50.9736 47.9805 51.5331 49.1178 51.7634 50.5995L38.6375 35.0932ZM50.594 34.7491L50.2293 35.1063L50.594 35.4635L53.8666 38.6684L54.2164 39.0111L54.5663 38.6684L57.8388 35.4635L58.2036 35.1063L57.8388 34.7491L54.5663 31.5442L54.2164 31.2016L53.8666 31.5442L50.594 34.7491Z" stroke="white"/>
<path d="M45.545 47.9698L45.5449 47.9699L45.5525 47.977L45.5526 47.9771L45.5527 47.9773L45.5528 47.9773L45.5529 47.9775L45.5558 47.9802L45.5708 47.9949C45.5848 48.0086 45.6063 48.0301 45.6343 48.059C45.6905 48.1167 45.7726 48.2039 45.8724 48.3176C46.0724 48.5454 46.3415 48.8774 46.6141 49.2903C47.1638 50.1229 47.7043 51.2484 47.7619 52.4921C47.8641 54.6973 47.3464 56.5992 46.8796 57.8297L35.4409 69.1244L19.6786 53.56L29.1348 44.2226L29.4951 43.8669L29.1348 43.5111L19.6765 34.1715L25.6339 28.2889L45.545 47.9698ZM35.0588 57.1571L35.3469 57.4416L35.685 57.219L35.4101 56.8013C35.685 57.219 35.6853 57.2188 35.6855 57.2187L35.686 57.2183L35.687 57.2176L35.6896 57.2159L35.6963 57.2114L35.716 57.1977C35.7318 57.1865 35.7529 57.1711 35.7784 57.1515C35.8295 57.1124 35.8988 57.0562 35.9801 56.9822C36.1424 56.8344 36.3544 56.6142 36.5652 56.3161C36.9893 55.7164 37.4037 54.807 37.4037 53.56C37.4037 52.313 36.9893 51.4037 36.5652 50.8039C36.3544 50.5058 36.1424 50.2857 35.9801 50.1379C35.8988 50.0639 35.8295 50.0077 35.7784 49.9685C35.7529 49.9489 35.7318 49.9336 35.716 49.9224L35.6963 49.9087L35.6896 49.9041L35.687 49.9024L35.686 49.9017L35.6855 49.9014C35.6853 49.9012 35.685 49.9011 35.4101 50.3187L35.685 49.9011L35.3469 49.6785L35.0588 49.9629L31.7763 53.2042L31.416 53.56L31.7763 53.9158L35.0588 57.1571Z" stroke="white"/>
<path d="M16.4748 37.095L23.4305 44.0486L16.4602 51.0168L0.707216 35.2686L7.68624 28.2918L13.6832 34.2449L12.0642 35.8635L11.7105 36.2171L12.0642 36.5707L14.1781 38.684L14.5316 39.0373L14.8851 38.684L16.4748 37.095Z" stroke="white"/>
</svg>
