<svg width="441" height="56" viewBox="0 0 441 56" fill="none" xmlns="http://www.w3.org/2000/svg">
<path d="M30.8132 13.5464L31.1853 13.1917L30.8204 12.8296L28.217 10.2461L27.8718 9.90354L27.5198 10.2391L24.8651 12.7699L24.493 13.1246L24.8579 13.4867L27.4613 16.0702L27.8065 16.4127L28.1585 16.0771L30.8132 13.5464ZM27.9613 0.972049L40.2752 13.1917L27.7159 25.2703L15.3369 13.0073L27.9613 0.972049Z" stroke="white"/>
<path d="M13.2474 15.6899L17.8746 20.1192L13.1475 24.4616L8.51789 20.0344L13.2474 15.6899Z" stroke="white"/>
<path d="M30.7321 27.8316L42.9257 16.0035L55.0042 28.0718L40.9048 41.6055C40.9402 41.1264 40.9363 40.6068 40.8597 40.0797L30.7321 27.8316ZM30.7321 27.8316L39.094 36.4177L39.104 36.4272C39.1169 36.4394 39.1343 36.4564 39.1558 36.4781C39.1987 36.5214 39.2578 36.5836 39.3285 36.6642C39.4697 36.8254 39.658 37.0614 39.8558 37.3699C40.2514 37.9866 40.6881 38.8975 40.8597 40.0797L30.7321 27.8316ZM39.8858 27.5757L39.5175 27.9293L39.8787 28.2901L42.4203 30.8297L42.7667 31.1758L43.12 30.8367L45.712 28.3486L46.0803 27.995L45.7192 27.6342L43.1775 25.0946L42.8311 24.7485L42.4779 25.0876L39.8858 27.5757Z" stroke="white"/>
<path d="M35.8194 38.0592L35.8193 38.0593L35.8266 38.0664L35.8267 38.0665L35.8268 38.0666L35.827 38.0668L35.8272 38.067L35.8287 38.0684L35.8396 38.0793C35.8498 38.0896 35.866 38.106 35.8872 38.1283C35.9296 38.1729 35.9922 38.2406 36.0683 38.329C36.2208 38.5063 36.4261 38.7649 36.6335 39.086C37.0527 39.7349 37.457 40.6028 37.4915 41.5518C37.5532 43.2501 37.1434 44.7134 36.7733 45.6664L27.8059 54.3452L15.7168 42.1663L23.1288 34.9927L23.4926 34.6405L23.1359 34.2811L15.8675 26.9587L20.4316 22.5414L35.8194 38.0592ZM27.5222 45.183L27.8074 45.4703L28.1478 45.2511L27.8771 44.8308C28.1478 45.2511 28.148 45.251 28.1482 45.2508L28.1487 45.2505L28.1497 45.2499L28.1521 45.2483L28.1582 45.2443L28.1753 45.2326C28.1889 45.2232 28.2066 45.2106 28.2279 45.1946C28.2705 45.1626 28.3277 45.1171 28.3945 45.0575C28.5278 44.9385 28.7013 44.7618 28.8742 44.5224C29.2227 44.0399 29.564 43.3087 29.574 42.3052C29.5841 41.3016 29.2575 40.5637 28.9188 40.0744C28.7507 39.8315 28.5808 39.6513 28.4498 39.5297C28.3843 39.4688 28.328 39.4222 28.2861 39.3894C28.2651 39.3729 28.2476 39.3599 28.2343 39.3503L28.2174 39.3383L28.2114 39.3341L28.209 39.3325L28.208 39.3318L28.2076 39.3315C28.2073 39.3314 28.2071 39.3312 27.928 39.7461L28.2071 39.3312L27.8712 39.1052L27.5803 39.3868L24.9801 41.9033L24.6163 42.2555L24.973 42.6148L27.5222 45.183Z" stroke="white"/>
<path d="M13.1779 29.3776L18.4281 34.7325L13.0601 39.9923L0.97882 27.6702L6.35401 22.4034L10.8595 26.9665L9.65418 28.1476L9.29693 28.4976L9.64709 28.8548L11.2885 30.5289L11.6385 30.8858L11.9955 30.536L13.1779 29.3776Z" stroke="white"/>
<path d="M85.8132 13.5464L86.1853 13.1917L85.8204 12.8296L83.217 10.2461L82.8718 9.90354L82.5198 10.2391L79.8651 12.7699L79.493 13.1246L79.8579 13.4867L82.4613 16.0702L82.8065 16.4127L83.1585 16.0771L85.8132 13.5464ZM82.9613 0.972049L95.2752 13.1917L82.7159 25.2703L70.3369 13.0073L82.9613 0.972049Z" stroke="white"/>
<path d="M68.2474 15.6899L72.8746 20.1192L68.1475 24.4616L63.5179 20.0344L68.2474 15.6899Z" stroke="white"/>
<path d="M85.7321 27.8316L97.9257 16.0035L110.004 28.0718L95.9048 41.6055C95.9402 41.1264 95.9363 40.6068 95.8597 40.0797L85.7321 27.8316ZM85.7321 27.8316L94.094 36.4177L94.104 36.4272C94.1169 36.4394 94.1343 36.4564 94.1558 36.4781C94.1987 36.5214 94.2578 36.5836 94.3285 36.6642C94.4697 36.8254 94.658 37.0614 94.8558 37.3699C95.2514 37.9866 95.6881 38.8975 95.8597 40.0797L85.7321 27.8316ZM94.8858 27.5757L94.5175 27.9293L94.8787 28.2901L97.4203 30.8297L97.7667 31.1758L98.12 30.8367L100.712 28.3486L101.08 27.995L100.719 27.6342L98.1775 25.0946L97.8311 24.7485L97.4779 25.0876L94.8858 27.5757Z" stroke="white"/>
<path d="M90.8194 38.0592L90.8193 38.0593L90.8266 38.0664L90.8267 38.0665L90.8268 38.0666L90.827 38.0668L90.8272 38.067L90.8287 38.0684L90.8396 38.0793C90.8498 38.0896 90.866 38.106 90.8872 38.1283C90.9296 38.1729 90.9922 38.2406 91.0683 38.329C91.2208 38.5063 91.4261 38.7649 91.6335 39.086C92.0527 39.7349 92.457 40.6028 92.4915 41.5518C92.5532 43.2501 92.1434 44.7134 91.7733 45.6664L82.8059 54.3452L70.7168 42.1663L78.1288 34.9927L78.4926 34.6405L78.1359 34.2811L70.8675 26.9587L75.4316 22.5414L90.8194 38.0592ZM82.5222 45.183L82.8074 45.4703L83.1478 45.2511L82.8771 44.8308C83.1478 45.2511 83.148 45.251 83.1482 45.2508L83.1487 45.2505L83.1497 45.2499L83.1521 45.2483L83.1582 45.2443L83.1753 45.2326C83.1889 45.2232 83.2066 45.2106 83.2279 45.1946C83.2705 45.1626 83.3277 45.1171 83.3945 45.0575C83.5278 44.9385 83.7013 44.7618 83.8742 44.5224C84.2227 44.0399 84.564 43.3087 84.574 42.3052C84.5841 41.3016 84.2575 40.5637 83.9188 40.0744C83.7507 39.8315 83.5808 39.6513 83.4498 39.5297C83.3843 39.4688 83.328 39.4222 83.2861 39.3894C83.2651 39.3729 83.2476 39.3599 83.2343 39.3503L83.2174 39.3383L83.2114 39.3341L83.209 39.3325L83.208 39.3318L83.2076 39.3315C83.2073 39.3314 83.2071 39.3312 82.928 39.7461L83.2071 39.3312L82.8712 39.1052L82.5803 39.3868L79.9801 41.9033L79.6163 42.2555L79.973 42.6148L82.5222 45.183Z" stroke="white"/>
<path d="M68.1779 29.3776L73.4281 34.7325L68.0601 39.9923L55.9788 27.6702L61.354 22.4034L65.8595 26.9665L64.6542 28.1476L64.2969 28.4976L64.6471 28.8548L66.2885 30.5289L66.6385 30.8858L66.9955 30.536L68.1779 29.3776Z" stroke="white"/>
<path d="M140.813 13.5464L141.185 13.1917L140.82 12.8296L138.217 10.2461L137.872 9.90354L137.52 10.2391L134.865 12.7699L134.493 13.1246L134.858 13.4867L137.461 16.0702L137.807 16.4127L138.159 16.0771L140.813 13.5464ZM137.961 0.972049L150.275 13.1917L137.716 25.2703L125.337 13.0073L137.961 0.972049Z" stroke="white"/>
<path d="M123.247 15.6899L127.875 20.1192L123.148 24.4616L118.518 20.0344L123.247 15.6899Z" stroke="white"/>
<path d="M140.732 27.8316L152.926 16.0035L165.004 28.0718L150.905 41.6055C150.94 41.1264 150.936 40.6068 150.86 40.0797L140.732 27.8316ZM140.732 27.8316L149.094 36.4177L149.104 36.4272C149.117 36.4394 149.134 36.4564 149.156 36.4781C149.199 36.5214 149.258 36.5836 149.328 36.6642C149.47 36.8254 149.658 37.0614 149.856 37.3699C150.251 37.9866 150.688 38.8975 150.86 40.0797L140.732 27.8316ZM149.886 27.5757L149.517 27.9293L149.879 28.2901L152.42 30.8297L152.767 31.1758L153.12 30.8367L155.712 28.3486L156.08 27.995L155.719 27.6342L153.178 25.0946L152.831 24.7485L152.478 25.0876L149.886 27.5757Z" stroke="white"/>
<path d="M145.819 38.0592L145.819 38.0593L145.827 38.0664L145.827 38.0665L145.827 38.0666L145.827 38.0668L145.827 38.067L145.829 38.0684L145.84 38.0793C145.85 38.0896 145.866 38.106 145.887 38.1283C145.93 38.1729 145.992 38.2406 146.068 38.329C146.221 38.5063 146.426 38.7649 146.633 39.086C147.053 39.7349 147.457 40.6028 147.491 41.5518C147.553 43.2501 147.143 44.7134 146.773 45.6664L137.806 54.3452L125.717 42.1663L133.129 34.9927L133.493 34.6405L133.136 34.2811L125.868 26.9587L130.432 22.5414L145.819 38.0592ZM137.522 45.183L137.807 45.4703L138.148 45.2511L137.877 44.8308C138.148 45.2511 138.148 45.251 138.148 45.2508L138.149 45.2505L138.15 45.2499L138.152 45.2483L138.158 45.2443L138.175 45.2326C138.189 45.2232 138.207 45.2106 138.228 45.1946C138.27 45.1626 138.328 45.1171 138.394 45.0575C138.528 44.9385 138.701 44.7618 138.874 44.5224C139.223 44.0399 139.564 43.3087 139.574 42.3052C139.584 41.3016 139.258 40.5637 138.919 40.0744C138.751 39.8315 138.581 39.6513 138.45 39.5297C138.384 39.4688 138.328 39.4222 138.286 39.3894C138.265 39.3729 138.248 39.3599 138.234 39.3503L138.217 39.3383L138.211 39.3341L138.209 39.3325L138.208 39.3318L138.208 39.3315C138.207 39.3314 138.207 39.3312 137.928 39.7461L138.207 39.3312L137.871 39.1052L137.58 39.3868L134.98 41.9033L134.616 42.2555L134.973 42.6148L137.522 45.183Z" stroke="white"/>
<path d="M123.178 29.3776L128.428 34.7325L123.06 39.9923L110.979 27.6702L116.354 22.4034L120.86 26.9665L119.654 28.1476L119.297 28.4976L119.647 28.8548L121.289 30.5289L121.638 30.8858L121.995 30.536L123.178 29.3776Z" stroke="white"/>
<path d="M195.813 13.5464L196.185 13.1917L195.82 12.8296L193.217 10.2461L192.872 9.90354L192.52 10.2391L189.865 12.7699L189.493 13.1246L189.858 13.4867L192.461 16.0702L192.807 16.4127L193.159 16.0771L195.813 13.5464ZM192.961 0.972049L205.275 13.1917L192.716 25.2703L180.337 13.0073L192.961 0.972049Z" stroke="white"/>
<path d="M178.247 15.6899L182.875 20.1192L178.148 24.4616L173.518 20.0344L178.247 15.6899Z" stroke="white"/>
<path d="M195.732 27.8316L207.926 16.0035L220.004 28.0718L205.905 41.6055C205.94 41.1264 205.936 40.6068 205.86 40.0797L195.732 27.8316ZM195.732 27.8316L204.094 36.4177L204.104 36.4272C204.117 36.4394 204.134 36.4564 204.156 36.4781C204.199 36.5214 204.258 36.5836 204.328 36.6642C204.47 36.8254 204.658 37.0614 204.856 37.3699C205.251 37.9866 205.688 38.8975 205.86 40.0797L195.732 27.8316ZM204.886 27.5757L204.517 27.9293L204.879 28.2901L207.42 30.8297L207.767 31.1758L208.12 30.8367L210.712 28.3486L211.08 27.995L210.719 27.6342L208.178 25.0946L207.831 24.7485L207.478 25.0876L204.886 27.5757Z" stroke="white"/>
<path d="M200.819 38.0592L200.819 38.0593L200.827 38.0664L200.827 38.0665L200.827 38.0666L200.827 38.0668L200.827 38.067L200.829 38.0684L200.84 38.0793C200.85 38.0896 200.866 38.106 200.887 38.1283C200.93 38.1729 200.992 38.2406 201.068 38.329C201.221 38.5063 201.426 38.7649 201.633 39.086C202.053 39.7349 202.457 40.6028 202.491 41.5518C202.553 43.2501 202.143 44.7134 201.773 45.6664L192.806 54.3452L180.717 42.1663L188.129 34.9927L188.493 34.6405L188.136 34.2811L180.868 26.9587L185.432 22.5414L200.819 38.0592ZM192.522 45.183L192.807 45.4703L193.148 45.2511L192.877 44.8308C193.148 45.2511 193.148 45.251 193.148 45.2508L193.149 45.2505L193.15 45.2499L193.152 45.2483L193.158 45.2443L193.175 45.2326C193.189 45.2232 193.207 45.2106 193.228 45.1946C193.27 45.1626 193.328 45.1171 193.394 45.0575C193.528 44.9385 193.701 44.7618 193.874 44.5224C194.223 44.0399 194.564 43.3087 194.574 42.3052C194.584 41.3016 194.258 40.5637 193.919 40.0744C193.751 39.8315 193.581 39.6513 193.45 39.5297C193.384 39.4688 193.328 39.4222 193.286 39.3894C193.265 39.3729 193.248 39.3599 193.234 39.3503L193.217 39.3383L193.211 39.3341L193.209 39.3325L193.208 39.3318L193.208 39.3315C193.207 39.3314 193.207 39.3312 192.928 39.7461L193.207 39.3312L192.871 39.1052L192.58 39.3868L189.98 41.9033L189.616 42.2555L189.973 42.6148L192.522 45.183Z" stroke="white"/>
<path d="M178.178 29.3776L183.428 34.7325L178.06 39.9923L165.979 27.6702L171.354 22.4034L175.86 26.9665L174.654 28.1476L174.297 28.4976L174.647 28.8548L176.289 30.5289L176.638 30.8858L176.995 30.536L178.178 29.3776Z" stroke="white"/>
<path d="M250.813 13.5464L251.185 13.1917L250.82 12.8296L248.217 10.2461L247.872 9.90354L247.52 10.2391L244.865 12.7699L244.493 13.1246L244.858 13.4867L247.461 16.0702L247.807 16.4127L248.159 16.0771L250.813 13.5464ZM247.961 0.972049L260.275 13.1917L247.716 25.2703L235.337 13.0073L247.961 0.972049Z" stroke="white"/>
<path d="M233.247 15.6899L237.875 20.1192L233.148 24.4616L228.518 20.0344L233.247 15.6899Z" stroke="white"/>
<path d="M250.732 27.8316L262.926 16.0035L275.004 28.0718L260.905 41.6055C260.94 41.1264 260.936 40.6068 260.86 40.0797L250.732 27.8316ZM250.732 27.8316L259.094 36.4177L259.104 36.4272C259.117 36.4394 259.134 36.4564 259.156 36.4781C259.199 36.5214 259.258 36.5836 259.328 36.6642C259.47 36.8254 259.658 37.0614 259.856 37.3699C260.251 37.9866 260.688 38.8975 260.86 40.0797L250.732 27.8316ZM259.886 27.5757L259.517 27.9293L259.879 28.2901L262.42 30.8297L262.767 31.1758L263.12 30.8367L265.712 28.3486L266.08 27.995L265.719 27.6342L263.178 25.0946L262.831 24.7485L262.478 25.0876L259.886 27.5757Z" stroke="white"/>
<path d="M255.819 38.0592L255.819 38.0593L255.827 38.0664L255.827 38.0665L255.827 38.0666L255.827 38.0668L255.827 38.067L255.829 38.0684L255.84 38.0793C255.85 38.0896 255.866 38.106 255.887 38.1283C255.93 38.1729 255.992 38.2406 256.068 38.329C256.221 38.5063 256.426 38.7649 256.633 39.086C257.053 39.7349 257.457 40.6028 257.491 41.5518C257.553 43.2501 257.143 44.7134 256.773 45.6664L247.806 54.3452L235.717 42.1663L243.129 34.9927L243.493 34.6405L243.136 34.2811L235.868 26.9587L240.432 22.5414L255.819 38.0592ZM247.522 45.183L247.807 45.4703L248.148 45.2511L247.877 44.8308C248.148 45.2511 248.148 45.251 248.148 45.2508L248.149 45.2505L248.15 45.2499L248.152 45.2483L248.158 45.2443L248.175 45.2326C248.189 45.2232 248.207 45.2106 248.228 45.1946C248.27 45.1626 248.328 45.1171 248.394 45.0575C248.528 44.9385 248.701 44.7618 248.874 44.5224C249.223 44.0399 249.564 43.3087 249.574 42.3052C249.584 41.3016 249.258 40.5637 248.919 40.0744C248.751 39.8315 248.581 39.6513 248.45 39.5297C248.384 39.4688 248.328 39.4222 248.286 39.3894C248.265 39.3729 248.248 39.3599 248.234 39.3503L248.217 39.3383L248.211 39.3341L248.209 39.3325L248.208 39.3318L248.208 39.3315C248.207 39.3314 248.207 39.3312 247.928 39.7461L248.207 39.3312L247.871 39.1052L247.58 39.3868L244.98 41.9033L244.616 42.2555L244.973 42.6148L247.522 45.183Z" stroke="white"/>
<path d="M233.178 29.3776L238.428 34.7325L233.06 39.9923L220.979 27.6702L226.354 22.4034L230.86 26.9665L229.654 28.1476L229.297 28.4976L229.647 28.8548L231.289 30.5289L231.638 30.8858L231.995 30.536L233.178 29.3776Z" stroke="white"/>
<path d="M305.813 13.5464L306.185 13.1917L305.82 12.8296L303.217 10.2461L302.872 9.90354L302.52 10.2391L299.865 12.7699L299.493 13.1246L299.858 13.4867L302.461 16.0702L302.806 16.4127L303.158 16.0771L305.813 13.5464ZM302.961 0.972049L315.275 13.1917L302.716 25.2703L290.337 13.0073L302.961 0.972049Z" stroke="white"/>
<path d="M288.247 15.6899L292.875 20.1192L288.148 24.4616L283.518 20.0344L288.247 15.6899Z" stroke="white"/>
<path d="M305.732 27.8316L317.926 16.0035L330.004 28.0718L315.905 41.6055C315.94 41.1264 315.936 40.6068 315.86 40.0797L305.732 27.8316ZM305.732 27.8316L314.094 36.4177L314.104 36.4272C314.117 36.4394 314.134 36.4564 314.156 36.4781C314.199 36.5214 314.258 36.5836 314.328 36.6642C314.47 36.8254 314.658 37.0614 314.856 37.3699C315.251 37.9866 315.688 38.8975 315.86 40.0797L305.732 27.8316ZM314.886 27.5757L314.517 27.9293L314.879 28.2901L317.42 30.8297L317.767 31.1758L318.12 30.8367L320.712 28.3486L321.08 27.995L320.719 27.6342L318.178 25.0946L317.831 24.7485L317.478 25.0876L314.886 27.5757Z" stroke="white"/>
<path d="M310.819 38.0592L310.819 38.0593L310.827 38.0664L310.827 38.0665L310.827 38.0666L310.827 38.0668L310.827 38.067L310.829 38.0684L310.839 38.0793C310.85 38.0896 310.866 38.106 310.887 38.1283C310.93 38.1729 310.992 38.2406 311.068 38.329C311.221 38.5063 311.426 38.7649 311.633 39.086C312.053 39.7349 312.457 40.6028 312.491 41.5518C312.553 43.2501 312.143 44.7134 311.773 45.6664L302.806 54.3452L290.717 42.1663L298.129 34.9927L298.493 34.6405L298.136 34.2811L290.867 26.9587L295.432 22.5414L310.819 38.0592ZM302.522 45.183L302.807 45.4703L303.148 45.2511L302.877 44.8308C303.148 45.2511 303.148 45.251 303.148 45.2508L303.149 45.2505L303.15 45.2499L303.152 45.2483L303.158 45.2443L303.175 45.2326C303.189 45.2232 303.207 45.2106 303.228 45.1946C303.27 45.1626 303.328 45.1171 303.394 45.0575C303.528 44.9385 303.701 44.7618 303.874 44.5224C304.223 44.0399 304.564 43.3087 304.574 42.3052C304.584 41.3016 304.257 40.5637 303.919 40.0744C303.751 39.8315 303.581 39.6513 303.45 39.5297C303.384 39.4688 303.328 39.4222 303.286 39.3894C303.265 39.3729 303.248 39.3599 303.234 39.3503L303.217 39.3383L303.211 39.3341L303.209 39.3325L303.208 39.3318L303.207 39.3315C303.207 39.3314 303.207 39.3312 302.928 39.7461L303.207 39.3312L302.871 39.1052L302.58 39.3868L299.98 41.9033L299.616 42.2555L299.973 42.6148L302.522 45.183Z" stroke="white"/>
<path d="M288.178 29.3776L293.428 34.7325L288.06 39.9923L275.979 27.6702L281.354 22.4034L285.859 26.9665L284.654 28.1476L284.297 28.4976L284.647 28.8548L286.288 30.5289L286.638 30.8858L286.995 30.536L288.178 29.3776Z" stroke="white"/>
<path d="M360.813 13.5464L361.185 13.1917L360.82 12.8296L358.217 10.2461L357.872 9.90354L357.52 10.2391L354.865 12.7699L354.493 13.1246L354.858 13.4867L357.461 16.0702L357.806 16.4127L358.158 16.0771L360.813 13.5464ZM357.961 0.972049L370.275 13.1917L357.716 25.2703L345.337 13.0073L357.961 0.972049Z" stroke="white"/>
<path d="M343.247 15.6899L347.875 20.1192L343.148 24.4616L338.518 20.0344L343.247 15.6899Z" stroke="white"/>
<path d="M360.732 27.8316L372.926 16.0035L385.004 28.0718L370.905 41.6055C370.94 41.1264 370.936 40.6068 370.86 40.0797L360.732 27.8316ZM360.732 27.8316L369.094 36.4177L369.104 36.4272C369.117 36.4394 369.134 36.4564 369.156 36.4781C369.199 36.5214 369.258 36.5836 369.328 36.6642C369.47 36.8254 369.658 37.0614 369.856 37.3699C370.251 37.9866 370.688 38.8975 370.86 40.0797L360.732 27.8316ZM369.886 27.5757L369.517 27.9293L369.879 28.2901L372.42 30.8297L372.767 31.1758L373.12 30.8367L375.712 28.3486L376.08 27.995L375.719 27.6342L373.178 25.0946L372.831 24.7485L372.478 25.0876L369.886 27.5757Z" stroke="white"/>
<path d="M365.819 38.0592L365.819 38.0593L365.827 38.0664L365.827 38.0665L365.827 38.0666L365.827 38.0668L365.827 38.067L365.829 38.0684L365.839 38.0793C365.85 38.0896 365.866 38.106 365.887 38.1283C365.93 38.1729 365.992 38.2406 366.068 38.329C366.221 38.5063 366.426 38.7649 366.633 39.086C367.053 39.7349 367.457 40.6028 367.491 41.5518C367.553 43.2501 367.143 44.7134 366.773 45.6664L357.806 54.3452L345.717 42.1663L353.129 34.9927L353.493 34.6405L353.136 34.2811L345.867 26.9587L350.432 22.5414L365.819 38.0592ZM357.522 45.183L357.807 45.4703L358.148 45.2511L357.877 44.8308C358.148 45.2511 358.148 45.251 358.148 45.2508L358.149 45.2505L358.15 45.2499L358.152 45.2483L358.158 45.2443L358.175 45.2326C358.189 45.2232 358.207 45.2106 358.228 45.1946C358.27 45.1626 358.328 45.1171 358.394 45.0575C358.528 44.9385 358.701 44.7618 358.874 44.5224C359.223 44.0399 359.564 43.3087 359.574 42.3052C359.584 41.3016 359.257 40.5637 358.919 40.0744C358.751 39.8315 358.581 39.6513 358.45 39.5297C358.384 39.4688 358.328 39.4222 358.286 39.3894C358.265 39.3729 358.248 39.3599 358.234 39.3503L358.217 39.3383L358.211 39.3341L358.209 39.3325L358.208 39.3318L358.207 39.3315C358.207 39.3314 358.207 39.3312 357.928 39.7461L358.207 39.3312L357.871 39.1052L357.58 39.3868L354.98 41.9033L354.616 42.2555L354.973 42.6148L357.522 45.183Z" stroke="white"/>
<path d="M343.178 29.3776L348.428 34.7325L343.06 39.9923L330.979 27.6702L336.354 22.4034L340.859 26.9665L339.654 28.1476L339.297 28.4976L339.647 28.8548L341.288 30.5289L341.638 30.8858L341.995 30.536L343.178 29.3776Z" stroke="white"/>
<path d="M415.813 13.5464L416.185 13.1917L415.82 12.8296L413.217 10.2461L412.872 9.90354L412.52 10.2391L409.865 12.7699L409.493 13.1246L409.858 13.4867L412.461 16.0702L412.806 16.4127L413.158 16.0771L415.813 13.5464ZM412.961 0.972049L425.275 13.1917L412.716 25.2703L400.337 13.0073L412.961 0.972049Z" stroke="white"/>
<path d="M398.247 15.6899L402.875 20.1192L398.148 24.4616L393.518 20.0344L398.247 15.6899Z" stroke="white"/>
<path d="M415.732 27.8316L427.926 16.0035L440.004 28.0718L425.905 41.6055C425.94 41.1264 425.936 40.6068 425.86 40.0797L415.732 27.8316ZM415.732 27.8316L424.094 36.4177L424.104 36.4272C424.117 36.4394 424.134 36.4564 424.156 36.4781C424.199 36.5214 424.258 36.5836 424.328 36.6642C424.47 36.8254 424.658 37.0614 424.856 37.3699C425.251 37.9866 425.688 38.8975 425.86 40.0797L415.732 27.8316ZM424.886 27.5757L424.517 27.9293L424.879 28.2901L427.42 30.8297L427.767 31.1758L428.12 30.8367L430.712 28.3486L431.08 27.995L430.719 27.6342L428.178 25.0946L427.831 24.7485L427.478 25.0876L424.886 27.5757Z" stroke="white"/>
<path d="M420.819 38.0592L420.819 38.0593L420.827 38.0664L420.827 38.0665L420.827 38.0666L420.827 38.0668L420.827 38.067L420.829 38.0684L420.839 38.0793C420.85 38.0896 420.866 38.106 420.887 38.1283C420.93 38.1729 420.992 38.2406 421.068 38.329C421.221 38.5063 421.426 38.7649 421.633 39.086C422.053 39.7349 422.457 40.6028 422.491 41.5518C422.553 43.2501 422.143 44.7134 421.773 45.6664L412.806 54.3452L400.717 42.1663L408.129 34.9927L408.493 34.6405L408.136 34.2811L400.867 26.9587L405.432 22.5414L420.819 38.0592ZM412.522 45.183L412.807 45.4703L413.148 45.2511L412.877 44.8308C413.148 45.2511 413.148 45.251 413.148 45.2508L413.149 45.2505L413.15 45.2499L413.152 45.2483L413.158 45.2443L413.175 45.2326C413.189 45.2232 413.207 45.2106 413.228 45.1946C413.27 45.1626 413.328 45.1171 413.394 45.0575C413.528 44.9385 413.701 44.7618 413.874 44.5224C414.223 44.0399 414.564 43.3087 414.574 42.3052C414.584 41.3016 414.257 40.5637 413.919 40.0744C413.751 39.8315 413.581 39.6513 413.45 39.5297C413.384 39.4688 413.328 39.4222 413.286 39.3894C413.265 39.3729 413.248 39.3599 413.234 39.3503L413.217 39.3383L413.211 39.3341L413.209 39.3325L413.208 39.3318L413.207 39.3315C413.207 39.3314 413.207 39.3312 412.928 39.7461L413.207 39.3312L412.871 39.1052L412.58 39.3868L409.98 41.9033L409.616 42.2555L409.973 42.6148L412.522 45.183Z" stroke="white"/>
<path d="M398.178 29.3776L403.428 34.7325L398.06 39.9923L385.979 27.6702L391.354 22.4034L395.859 26.9665L394.654 28.1476L394.297 28.4976L394.647 28.8548L396.288 30.5289L396.638 30.8858L396.995 30.536L398.178 29.3776Z" stroke="white"/>
</svg>
