
<svg width="322" height="200" viewBox="0 0 322 400" fill="none" xmlns="http://www.w3.org/2000/svg">
<path d="M220.602 95.6752L220.975 95.3205L220.61 94.9584L201.789 76.2823L201.444 75.9397L201.092 76.2753L181.901 94.5705L181.529 94.9252L181.894 95.2873L200.715 113.963L201.06 114.306L201.412 113.97L220.602 95.6752ZM202.178 2.68406L295.61 95.4006L200.329 187.035L106.403 93.9897L202.178 2.68406Z" stroke="white" stroke-opacity="0.35"/>
<path d="M95.8114 109.155L133.771 145.491L95.0029 181.105L57.0233 144.786L95.8114 109.155Z" stroke="white" stroke-opacity="0.35"/>
<path d="M217.757 201.135L310.347 111.322L402.082 202.98L291.294 309.322C292.41 304.265 293.328 297.288 292.297 290.188C291.133 282.167 288.172 275.998 285.5 271.833C284.164 269.75 282.9 268.167 281.967 267.103C281.501 266.571 281.117 266.168 280.849 265.896C280.714 265.761 280.609 265.658 280.536 265.589C280.521 265.574 280.507 265.561 280.494 265.549C280.477 265.533 280.463 265.52 280.452 265.509L280.433 265.492L217.757 201.135ZM290.496 201.596L290.127 201.949L290.488 202.31L308.862 220.668L309.209 221.015L309.562 220.675L328.3 202.689L328.668 202.335L328.307 201.974L309.933 183.616L309.587 183.27L309.234 183.609L290.496 201.596Z" stroke="white" stroke-opacity="0.35"/>
<path d="M261.153 272.942L261.153 272.942L261.161 272.949L261.161 272.95L261.163 272.951L261.168 272.957L261.194 272.981C261.216 273.004 261.25 273.037 261.295 273.082C261.385 273.173 261.518 273.308 261.687 273.486C262.027 273.843 262.514 274.371 263.102 275.054C264.278 276.42 265.852 278.403 267.443 280.867C270.631 285.802 273.865 292.629 274.142 300.27C274.622 313.484 271.327 324.773 268.489 331.896L200.968 397.244L109.186 304.78L165.034 250.728L165.398 250.376L165.042 250.017L110.276 194.844L147.747 158.577L261.153 272.942ZM201.171 324.439L201.457 324.726L201.797 324.507L201.526 324.087C201.797 324.507 201.797 324.507 201.797 324.507L201.798 324.506L201.8 324.505L201.807 324.501L201.828 324.486C201.847 324.474 201.873 324.456 201.907 324.433C201.974 324.386 202.071 324.317 202.193 324.226C202.437 324.043 202.781 323.769 203.193 323.402C204.017 322.667 205.112 321.554 206.21 320.034C208.409 316.99 210.614 312.317 210.679 305.798C210.745 299.278 208.634 294.562 206.496 291.475C205.429 289.933 204.356 288.798 203.547 288.047C203.143 287.671 202.804 287.391 202.564 287.203C202.444 287.109 202.349 287.039 202.282 286.991C202.249 286.967 202.223 286.948 202.205 286.935L202.183 286.921L202.177 286.916L202.175 286.915L202.174 286.914C202.174 286.914 202.174 286.914 201.895 287.329L202.174 286.914L201.838 286.688L201.547 286.97L182.75 305.162L182.386 305.514L182.743 305.873L201.171 324.439Z" stroke="white" stroke-opacity="0.35"/>
<path d="M84.5368 218.525L95.3088 207.971L137.624 251.13L94.3686 293.513L2.67099 199.988L45.9701 157.561L82.9175 194.981L71.9707 205.708L71.6135 206.058L71.9636 206.415L83.8299 218.518L84.1798 218.874L84.5368 218.525Z" stroke="white" stroke-opacity="0.35"/>
</svg>
