<svg width="405" height="402" viewBox="0 0 405 402" fill="none" xmlns="http://www.w3.org/2000/svg">
	<path d="M200.219 188.675L200.39 188.85L200.569 188.683L296.5 98.6959L296.686 98.5215L296.508 98.339L205.057 4.58811L204.887 4.41338L204.708 4.57959L108.291 94.2319L108.103 94.4064L108.282 94.5897L200.219 188.675ZM203.069 78.9551L221.002 97.3394L202.194 114.828L184.261 96.4436L203.069 78.9551Z" stroke="white" stroke-width="0.5" />
	<path d="M96.4981 181.311L96.6654 181.477L96.8406 181.32L136.293 145.973L136.491 145.796L136.302 145.609L98.7044 108.43L98.5371 108.264L98.3618 108.421L58.8889 143.784L58.691 143.962L58.88 144.148L96.4981 181.311Z" stroke="white" stroke-width="0.5" />
	<path d="M399.901 206.63L400.087 206.456L399.91 206.274L310.115 113.588L309.943 113.411L309.764 113.581L216.519 201.803L216.338 201.975L216.509 202.156L277.712 267.08L277.717 267.086L277.723 267.091L277.723 267.091L277.724 267.092L277.728 267.096L277.747 267.114C277.756 267.123 277.769 267.135 277.784 267.149C277.795 267.16 277.807 267.173 277.822 267.187C277.888 267.252 277.985 267.35 278.111 267.481C278.362 267.743 278.724 268.135 279.166 268.656C280.049 269.698 281.25 271.252 282.515 273.296C285.045 277.384 287.83 283.429 288.847 291.255C289.849 298.96 288.51 306.51 287.2 311.512L286.981 312.349L287.613 311.758L399.901 206.63ZM307.262 221.919L289.763 203.857L308.121 186.668L325.621 204.731L307.262 221.919Z" stroke="white" stroke-width="0.5" />
	<path d="M110.667 194.421L164.028 249.957L108.036 302.814L107.852 302.987L108.027 303.169L197.851 396.653L198.023 396.832L198.203 396.662L266.112 332.557L266.151 332.52L266.171 332.471C269.103 325.409 272.58 314.139 272.291 300.862C272.122 293.112 268.96 286.179 265.852 281.194C264.297 278.699 262.753 276.687 261.597 275.298C261.018 274.604 260.537 274.065 260.2 273.699C260.031 273.516 259.899 273.377 259.808 273.282C259.763 273.235 259.728 273.2 259.704 273.175L259.677 273.148L259.671 273.142L259.67 273.141L259.668 273.139L259.667 273.139L149.193 158.046L149.021 157.867L148.841 158.037L110.675 194.066L110.492 194.239L110.667 194.421ZM199.676 323.092L182.098 304.797L200.547 287.382C200.595 287.419 200.654 287.466 200.722 287.521C200.941 287.698 201.256 287.966 201.633 288.328C202.387 289.051 203.391 290.148 204.387 291.637C206.376 294.613 208.333 299.16 208.18 305.433C208.027 311.707 205.851 316.153 203.719 319.028C202.652 320.467 201.595 321.514 200.807 322.2C200.412 322.543 200.086 322.795 199.858 322.961C199.787 323.013 199.726 323.056 199.676 323.092Z" stroke="white" stroke-width="0.5" />
	<path d="M138.569 250.532L138.749 250.36L138.578 250.18L96.8085 206.168L96.6358 205.986L96.4544 206.16L85.5122 216.616L74.3338 204.838L85.4535 194.21L85.6342 194.037L85.4615 193.857L48.898 155.601L48.7252 155.42L48.5445 155.593L4.55345 197.637L4.37335 197.809L4.54485 197.99L94.2669 292.527L94.4396 292.709L94.6209 292.535L138.569 250.532Z" stroke="white" stroke-width="0.5" />
</svg>
