<svg xmlns="http://www.w3.org/2000/svg" width="40" height="40" viewBox="0 0 46 46" fill="none">
  <rect width="46" height="46" rx="23" fill="white"/>
  <path d="M21.75 31.5C16.37 31.5 12 27.13 12 21.75C12 16.37 16.37 12 21.75 12C27.13 12 31.5 16.37 31.5 21.75C31.5 27.13 27.13 31.5 21.75 31.5ZM21.75 13.5C17.2 13.5 13.5 17.2 13.5 21.75C13.5 26.3 17.2 30 21.75 30C26.3 30 30 26.3 30 21.75C30 17.2 26.3 13.5 21.75 13.5Z" fill="#3C3C3B"/>
  <path d="M30.9101 33.54C30.8301 33.54 30.7501 33.53 30.6801 33.52C30.2101 33.46 29.3601 33.14 28.8801 31.71C28.6301 30.96 28.7201 30.21 29.1301 29.64C29.5401 29.07 30.2301 28.75 31.0201 28.75C32.0401 28.75 32.8401 29.14 33.2001 29.83C33.5601 30.52 33.4601 31.4 32.8901 32.25C32.1801 33.32 31.4101 33.54 30.9101 33.54ZM30.3101 31.24C30.4801 31.76 30.7201 32.02 30.8801 32.04C31.0401 32.06 31.3401 31.87 31.6501 31.42C31.9401 30.99 31.9601 30.68 31.8901 30.54C31.8201 30.4 31.5401 30.25 31.0201 30.25C30.7101 30.25 30.4801 30.35 30.3501 30.52C30.2301 30.69 30.2101 30.95 30.3101 31.24Z" fill="#3C3C3B"/>
</svg>