<svg width="723" height="51" viewBox="0 0 923 51" fill="none" xmlns="http://www.w3.org/2000/svg">
	<path d="M899.779 12.4875L900.148 12.1291L899.779 11.7707L897.34 9.39764L896.991 9.05856L896.642 9.39764L894.203 11.7707L893.834 12.1291L894.203 12.4875L896.642 14.8606L896.991 15.1997L897.34 14.8606L899.779 12.4875ZM896.991 0.870477L908.479 12.0447L896.989 23.3191L885.44 12.1054L896.991 0.870477Z" stroke="#A61517" />
	<path d="M883.474 14.6633L887.757 18.681L883.463 22.705L879.179 18.6893L883.474 14.6633Z" stroke="#A61517" />
	<path d="M899.863 25.7181L911.017 14.6795L922.285 25.7151L909.421 38.3135C909.443 37.8926 909.43 37.4409 909.359 36.9835L899.863 25.7181ZM899.863 25.7181L907.676 33.5816L907.685 33.5898C907.697 33.6013 907.714 33.6171 907.734 33.6373C907.775 33.6776 907.831 33.7352 907.898 33.81C908.031 33.9594 908.209 34.1781 908.397 34.4641C908.772 35.0361 909.188 35.882 909.359 36.9835L899.863 25.7181ZM908.278 25.3696L907.914 25.7269L908.278 26.0841L910.661 28.4169L911.01 28.7596L911.36 28.4169L913.742 26.0841L914.107 25.7269L913.742 25.3696L911.36 23.0368L911.01 22.6942L910.661 23.0368L908.278 25.3696Z" stroke="#A61517" />
	<path d="M904.602 35.1869L904.602 35.187L904.609 35.194L904.609 35.194L904.61 35.1942L904.61 35.1944L904.61 35.1946L904.611 35.1957L904.621 35.2054C904.631 35.2147 904.646 35.2296 904.665 35.2499C904.705 35.2904 904.763 35.3522 904.834 35.4331C904.976 35.5953 905.168 35.832 905.362 36.1263C905.756 36.7218 906.135 37.517 906.176 38.3882C906.248 39.9529 905.885 41.3063 905.552 42.1913L897.343 50.2974L886.063 39.1593L892.848 32.4594L893.209 32.1036L892.848 31.7478L886.062 25.0464L890.204 20.9557L904.602 35.1869ZM896.969 41.8744L897.257 42.1589L897.596 41.9362L897.321 41.5186C897.596 41.9362 897.596 41.9361 897.596 41.936L897.596 41.9356L897.597 41.935L897.6 41.9334L897.606 41.9295L897.622 41.9181C897.635 41.909 897.651 41.8969 897.671 41.8815C897.711 41.8509 897.765 41.8075 897.827 41.7509C897.951 41.6378 898.112 41.4702 898.272 41.244C898.595 40.7879 898.908 40.0991 898.908 39.1593C898.908 38.2195 898.595 37.5306 898.272 37.0746C898.112 36.8483 897.951 36.6808 897.827 36.5677C897.765 36.511 897.711 36.4677 897.671 36.437C897.651 36.4217 897.635 36.4095 897.622 36.4004L897.606 36.3891L897.6 36.3851L897.597 36.3836L897.596 36.3829L897.596 36.3826C897.596 36.3825 897.596 36.3823 897.321 36.7999L897.596 36.3823L897.257 36.1597L896.969 36.4442L894.58 38.8035L894.22 39.1593L894.58 39.5151L896.969 41.8744Z" stroke="#A61517" />
	<path d="M883.537 27.3668L888.408 32.2359L883.527 37.1157L872.253 25.845L877.141 20.9586L881.313 25.1002L880.231 26.1818L879.877 26.5354L880.231 26.889L881.769 28.4272L882.123 28.7806L882.476 28.4273L883.537 27.3668Z" stroke="#A61517" />
	<path d="M848.325 12.4875L848.693 12.1291L848.325 11.7707L845.885 9.39764L845.536 9.05856L845.188 9.39764L842.748 11.7707L842.379 12.1291L842.748 12.4875L845.188 14.8606L845.536 15.1997L845.885 14.8606L848.325 12.4875ZM845.536 0.870477L857.025 12.0447L845.535 23.3191L833.986 12.1054L845.536 0.870477Z" stroke="#A61517" />
	<path d="M832.02 14.6633L836.302 18.681L832.009 22.705L827.724 18.6893L832.02 14.6633Z" stroke="#A61517" />
	<path d="M848.408 25.7181L859.562 14.6795L870.831 25.7151L857.966 38.3135C857.988 37.8926 857.976 37.4409 857.905 36.9835L848.408 25.7181ZM848.408 25.7181L856.222 33.5816L856.231 33.5898C856.243 33.6013 856.259 33.6171 856.28 33.6373C856.32 33.6776 856.376 33.7352 856.443 33.81C856.577 33.9594 856.755 34.1781 856.942 34.4641C857.317 35.0361 857.733 35.882 857.905 36.9835L848.408 25.7181ZM856.824 25.3696L856.459 25.7269L856.824 26.0841L859.206 28.4169L859.556 28.7596L859.906 28.4169L862.288 26.0841L862.652 25.7269L862.288 25.3696L859.906 23.0368L859.556 22.6942L859.206 23.0368L856.824 25.3696Z" stroke="#A61517" />
	<path d="M853.148 35.1869L853.147 35.187L853.155 35.194L853.155 35.194L853.155 35.1942L853.155 35.1944L853.155 35.1946L853.157 35.1957L853.167 35.2054C853.176 35.2147 853.191 35.2296 853.211 35.2499C853.25 35.2904 853.308 35.3522 853.379 35.4331C853.522 35.5953 853.713 35.832 853.908 36.1263C854.301 36.7218 854.681 37.517 854.721 38.3882C854.793 39.9529 854.431 41.3063 854.098 42.1913L845.888 50.2974L834.609 39.1593L841.394 32.4594L841.754 32.1036L841.394 31.7478L834.607 25.0464L838.75 20.9557L853.148 35.1869ZM845.515 41.8744L845.803 42.1589L846.141 41.9362L845.866 41.5186C846.141 41.9362 846.141 41.9361 846.141 41.936L846.142 41.9356L846.143 41.935L846.145 41.9334L846.151 41.9295L846.167 41.9181C846.18 41.909 846.197 41.8969 846.217 41.8815C846.257 41.8509 846.31 41.8075 846.372 41.7509C846.497 41.6378 846.658 41.4702 846.818 41.244C847.14 40.7879 847.453 40.0991 847.453 39.1593C847.453 38.2195 847.14 37.5306 846.818 37.0746C846.658 36.8483 846.497 36.6808 846.372 36.5677C846.31 36.511 846.257 36.4677 846.217 36.437C846.197 36.4217 846.18 36.4095 846.167 36.4004L846.151 36.3891L846.145 36.3851L846.143 36.3836L846.142 36.3829L846.141 36.3826C846.141 36.3825 846.141 36.3823 845.866 36.7999L846.141 36.3823L845.803 36.1597L845.515 36.4442L843.125 38.8035L842.765 39.1593L843.125 39.5151L845.515 41.8744Z" stroke="#A61517" />
	<path d="M832.083 27.3668L836.953 32.2359L832.072 37.1157L820.798 25.845L825.686 20.9586L829.858 25.1002L828.776 26.1818L828.422 26.5354L828.776 26.889L830.315 28.4272L830.668 28.7806L831.022 28.4273L832.083 27.3668Z" stroke="#A61517" />
	<path d="M796.87 12.4875L797.239 12.1291L796.87 11.7707L794.43 9.39764L794.082 9.05856L793.733 9.39764L791.293 11.7707L790.925 12.1291L791.293 12.4875L793.733 14.8606L794.082 15.1997L794.43 14.8606L796.87 12.4875ZM794.082 0.870477L805.57 12.0447L794.08 23.3191L782.531 12.1054L794.082 0.870477Z" stroke="#A61517" />
	<path d="M780.565 14.6633L784.848 18.681L780.554 22.705L776.27 18.6893L780.565 14.6633Z" stroke="#A61517" />
	<path d="M796.954 25.7181L808.108 14.6795L819.376 25.7151L806.512 38.3135C806.533 37.8926 806.521 37.4409 806.45 36.9835L796.954 25.7181ZM796.954 25.7181L804.767 33.5816L804.776 33.5898C804.788 33.6013 804.805 33.6171 804.825 33.6373C804.866 33.6776 804.922 33.7352 804.989 33.81C805.122 33.9594 805.3 34.1781 805.488 34.4641C805.863 35.0361 806.279 35.882 806.45 36.9835L796.954 25.7181ZM805.369 25.3696L805.005 25.7269L805.369 26.0841L807.751 28.4169L808.101 28.7596L808.451 28.4169L810.833 26.0841L811.198 25.7269L810.833 25.3696L808.451 23.0368L808.101 22.6942L807.751 23.0368L805.369 25.3696Z" stroke="#A61517" />
	<path d="M801.693 35.1869L801.693 35.187L801.7 35.194L801.7 35.194L801.701 35.1942L801.701 35.1944L801.701 35.1946L801.702 35.1957L801.712 35.2054C801.721 35.2147 801.736 35.2296 801.756 35.2499C801.795 35.2904 801.854 35.3522 801.925 35.4331C802.067 35.5953 802.259 35.832 802.453 36.1263C802.846 36.7218 803.226 37.517 803.266 38.3882C803.339 39.9529 802.976 41.3063 802.643 42.1913L794.434 50.2974L783.154 39.1593L789.939 32.4594L790.299 32.1036L789.939 31.7478L783.153 25.0464L787.295 20.9557L801.693 35.1869ZM794.06 41.8744L794.348 42.1589L794.686 41.9362L794.411 41.5186C794.686 41.9362 794.687 41.9361 794.687 41.936L794.687 41.9356L794.688 41.935L794.691 41.9334L794.696 41.9295L794.713 41.9181C794.726 41.909 794.742 41.8969 794.762 41.8815C794.802 41.8509 794.856 41.8075 794.918 41.7509C795.042 41.6378 795.203 41.4702 795.363 41.244C795.686 40.7879 795.999 40.0991 795.999 39.1593C795.999 38.2195 795.686 37.5306 795.363 37.0746C795.203 36.8483 795.042 36.6808 794.918 36.5677C794.856 36.511 794.802 36.4677 794.762 36.437C794.742 36.4217 794.726 36.4095 794.713 36.4004L794.696 36.3891L794.691 36.3851L794.688 36.3836L794.687 36.3829L794.687 36.3826C794.687 36.3825 794.686 36.3823 794.411 36.7999L794.686 36.3823L794.348 36.1597L794.06 36.4442L791.671 38.8035L791.31 39.1593L791.671 39.5151L794.06 41.8744Z" stroke="#A61517" />
	<path d="M780.628 27.3668L785.499 32.2359L780.618 37.1157L769.343 25.845L774.231 20.9586L778.403 25.1002L777.322 26.1818L776.968 26.5354L777.322 26.889L778.86 28.4272L779.214 28.7806L779.567 28.4273L780.628 27.3668Z" stroke="#A61517" />
	<path d="M745.416 12.4875L745.784 12.1291L745.416 11.7707L742.976 9.39764L742.627 9.05856L742.279 9.39764L739.839 11.7707L739.47 12.1291L739.839 12.4875L742.279 14.8606L742.627 15.1997L742.976 14.8606L745.416 12.4875ZM742.627 0.870477L754.116 12.0447L742.625 23.3191L731.076 12.1054L742.627 0.870477Z" stroke="#A61517" />
	<path d="M729.111 14.6633L733.393 18.681L729.1 22.705L724.815 18.6893L729.111 14.6633Z" stroke="#A61517" />
	<path d="M745.499 25.7181L756.653 14.6795L767.922 25.7151L755.057 38.3135C755.079 37.8926 755.067 37.4409 754.995 36.9835L745.499 25.7181ZM745.499 25.7181L753.312 33.5816L753.321 33.5898C753.334 33.6013 753.35 33.6171 753.371 33.6373C753.411 33.6776 753.467 33.7352 753.534 33.81C753.668 33.9594 753.846 34.1781 754.033 34.4641C754.408 35.0361 754.824 35.882 754.995 36.9835L745.499 25.7181ZM753.915 25.3696L753.55 25.7269L753.915 26.0841L756.297 28.4169L756.647 28.7596L756.996 28.4169L759.379 26.0841L759.743 25.7269L759.379 25.3696L756.996 23.0368L756.647 22.6942L756.297 23.0368L753.915 25.3696Z" stroke="#A61517" />
	<path d="M750.238 35.1869L750.238 35.187L750.246 35.194L750.246 35.194L750.246 35.1942L750.246 35.1944L750.246 35.1946L750.247 35.1957L750.257 35.2054C750.267 35.2147 750.282 35.2296 750.301 35.2499C750.341 35.2904 750.399 35.3522 750.47 35.4331C750.612 35.5953 750.804 35.832 750.999 36.1263C751.392 36.7218 751.771 37.517 751.812 38.3882C751.884 39.9529 751.521 41.3063 751.189 42.1913L742.979 50.2974L731.7 39.1593L738.485 32.4594L738.845 32.1036L738.485 31.7478L731.698 25.0464L735.841 20.9557L750.238 35.1869ZM742.606 41.8744L742.894 42.1589L743.232 41.9362L742.957 41.5186C743.232 41.9362 743.232 41.9361 743.232 41.936L743.233 41.9356L743.234 41.935L743.236 41.9334L743.242 41.9295L743.258 41.9181C743.271 41.909 743.288 41.8969 743.308 41.8815C743.348 41.8509 743.401 41.8075 743.463 41.7509C743.588 41.6378 743.749 41.4702 743.909 41.244C744.231 40.7879 744.544 40.0991 744.544 39.1593C744.544 38.2195 744.231 37.5306 743.909 37.0746C743.749 36.8483 743.588 36.6808 743.463 36.5677C743.401 36.511 743.348 36.4677 743.308 36.437C743.288 36.4217 743.271 36.4095 743.258 36.4004L743.242 36.3891L743.236 36.3851L743.234 36.3836L743.233 36.3829L743.232 36.3826C743.232 36.3825 743.232 36.3823 742.957 36.7999L743.232 36.3823L742.894 36.1597L742.606 36.4442L740.216 38.8035L739.856 39.1593L740.216 39.5151L742.606 41.8744Z" stroke="#A61517" />
	<path d="M729.174 27.3668L734.044 32.2359L729.163 37.1157L717.889 25.845L722.777 20.9586L726.949 25.1002L725.867 26.1818L725.513 26.5354L725.867 26.889L727.406 28.4272L727.759 28.7806L728.113 28.4273L729.174 27.3668Z" stroke="#A61517" />
	<path d="M693.961 12.4875L694.33 12.1291L693.961 11.7707L691.522 9.39764L691.173 9.05856L690.824 9.39764L688.385 11.7707L688.016 12.1291L688.385 12.4875L690.824 14.8606L691.173 15.1997L691.522 14.8606L693.961 12.4875ZM691.173 0.870477L702.662 12.0447L691.171 23.3191L679.622 12.1054L691.173 0.870477Z" stroke="#A61517" />
	<path d="M677.657 14.6633L681.939 18.681L677.646 22.705L673.361 18.6893L677.657 14.6633Z" stroke="#A61517" />
	<path d="M694.045 25.7181L705.199 14.6795L716.468 25.7151L703.603 38.3135C703.625 37.8926 703.612 37.4409 703.541 36.9835L694.045 25.7181ZM694.045 25.7181L701.858 33.5816L701.867 33.5898C701.88 33.6013 701.896 33.6171 701.916 33.6373C701.957 33.6776 702.013 33.7352 702.08 33.81C702.214 33.9594 702.392 34.1781 702.579 34.4641C702.954 35.0361 703.37 35.882 703.541 36.9835L694.045 25.7181ZM702.461 25.3696L702.096 25.7269L702.461 26.0841L704.843 28.4169L705.193 28.7596L705.542 28.4169L707.924 26.0841L708.289 25.7269L707.924 25.3696L705.542 23.0368L705.193 22.6942L704.843 23.0368L702.461 25.3696Z" stroke="#A61517" />
	<path d="M698.784 35.1869L698.784 35.187L698.792 35.194L698.792 35.194L698.792 35.1942L698.792 35.1944L698.792 35.1946L698.793 35.1957L698.803 35.2054C698.813 35.2147 698.828 35.2296 698.847 35.2499C698.887 35.2904 698.945 35.3522 699.016 35.4331C699.158 35.5953 699.35 35.832 699.545 36.1263C699.938 36.7218 700.317 37.517 700.358 38.3882C700.43 39.9529 700.067 41.3063 699.735 42.1913L691.525 50.2974L680.245 39.1593L687.031 32.4594L687.391 32.1036L687.031 31.7478L680.244 25.0464L684.387 20.9557L698.784 35.1869ZM691.151 41.8744L691.439 42.1589L691.778 41.9362L691.503 41.5186C691.778 41.9362 691.778 41.9361 691.778 41.936L691.779 41.9356L691.78 41.935L691.782 41.9334L691.788 41.9295L691.804 41.9181C691.817 41.909 691.834 41.8969 691.854 41.8815C691.894 41.8509 691.947 41.8075 692.009 41.7509C692.133 41.6378 692.295 41.4702 692.455 41.244C692.777 40.7879 693.09 40.0991 693.09 39.1593C693.09 38.2195 692.777 37.5306 692.455 37.0746C692.295 36.8483 692.133 36.6808 692.009 36.5677C691.947 36.511 691.894 36.4677 691.854 36.437C691.834 36.4217 691.817 36.4095 691.804 36.4004L691.788 36.3891L691.782 36.3851L691.78 36.3836L691.779 36.3829L691.778 36.3826C691.778 36.3825 691.778 36.3823 691.503 36.7999L691.778 36.3823L691.439 36.1597L691.151 36.4442L688.762 38.8035L688.402 39.1593L688.762 39.5151L691.151 41.8744Z" stroke="#A61517" />
	<path d="M677.72 27.3668L682.59 32.2359L677.709 37.1157L666.435 25.845L671.323 20.9586L675.495 25.1002L674.413 26.1818L674.059 26.5354L674.413 26.889L675.952 28.4272L676.305 28.7806L676.659 28.4273L677.72 27.3668Z" stroke="#A61517" />
	<path d="M642.506 12.4875L642.875 12.1291L642.506 11.7707L640.067 9.39764L639.718 9.05856L639.369 9.39764L636.93 11.7707L636.561 12.1291L636.93 12.4875L639.369 14.8606L639.718 15.1997L640.067 14.8606L642.506 12.4875ZM639.718 0.870477L651.206 12.0447L639.716 23.3191L628.167 12.1054L639.718 0.870477Z" stroke="#A61517" />
	<path d="M626.201 14.6633L630.484 18.681L626.19 22.705L621.906 18.6893L626.201 14.6633Z" stroke="#A61517" />
	<path d="M642.59 25.7181L653.744 14.6795L665.013 25.7151L652.148 38.3135C652.17 37.8926 652.157 37.4409 652.086 36.9835L642.59 25.7181ZM642.59 25.7181L650.403 33.5816L650.412 33.5898C650.424 33.6013 650.441 33.6171 650.461 33.6373C650.502 33.6776 650.558 33.7352 650.625 33.81C650.758 33.9594 650.936 34.1781 651.124 34.4641C651.499 35.0361 651.915 35.882 652.086 36.9835L642.59 25.7181ZM651.005 25.3696L650.641 25.7269L651.005 26.0841L653.388 28.4169L653.737 28.7596L654.087 28.4169L656.469 26.0841L656.834 25.7269L656.469 25.3696L654.087 23.0368L653.737 22.6942L653.388 23.0368L651.005 25.3696Z" stroke="#A61517" />
	<path d="M647.329 35.1869L647.329 35.187L647.336 35.194L647.337 35.194L647.337 35.1942L647.337 35.1944L647.337 35.1946L647.338 35.1957L647.348 35.2054C647.358 35.2147 647.373 35.2296 647.392 35.2499C647.432 35.2904 647.49 35.3522 647.561 35.4331C647.703 35.5953 647.895 35.832 648.089 36.1263C648.483 36.7218 648.862 37.517 648.903 38.3882C648.975 39.9529 648.612 41.3063 648.279 42.1913L640.07 50.2974L628.79 39.1593L635.575 32.4594L635.936 32.1036L635.575 31.7478L628.789 25.0464L632.932 20.9557L647.329 35.1869ZM639.696 41.8744L639.984 42.1589L640.323 41.9362L640.048 41.5186C640.323 41.9362 640.323 41.9361 640.323 41.936L640.323 41.9356L640.324 41.935L640.327 41.9334L640.333 41.9295L640.349 41.9181C640.362 41.909 640.378 41.8969 640.398 41.8815C640.438 41.8509 640.492 41.8075 640.554 41.7509C640.678 41.6378 640.84 41.4702 640.999 41.244C641.322 40.7879 641.635 40.0991 641.635 39.1593C641.635 38.2195 641.322 37.5306 640.999 37.0746C640.84 36.8483 640.678 36.6808 640.554 36.5677C640.492 36.511 640.438 36.4677 640.398 36.437C640.378 36.4217 640.362 36.4095 640.349 36.4004L640.333 36.3891L640.327 36.3851L640.324 36.3836L640.323 36.3829L640.323 36.3826C640.323 36.3825 640.323 36.3823 640.048 36.7999L640.323 36.3823L639.984 36.1597L639.696 36.4442L637.307 38.8035L636.947 39.1593L637.307 39.5151L639.696 41.8744Z" stroke="#A61517" />
	<path d="M626.264 27.3668L631.135 32.2359L626.254 37.1157L614.98 25.845L619.868 20.9586L624.04 25.1002L622.958 26.1818L622.604 26.5354L622.958 26.889L624.496 28.4272L624.85 28.7806L625.203 28.4273L626.264 27.3668Z" stroke="#A61517" />
	<path d="M591.052 12.4875L591.421 12.1291L591.052 11.7707L588.613 9.39764L588.264 9.05856L587.915 9.39764L585.475 11.7707L585.107 12.1291L585.475 12.4875L587.915 14.8606L588.264 15.1997L588.613 14.8606L591.052 12.4875ZM588.264 0.870477L599.752 12.0447L588.262 23.3191L576.713 12.1054L588.264 0.870477Z" stroke="#A61517" />
	<path d="M574.747 14.6633L579.03 18.681L574.736 22.705L570.452 18.6893L574.747 14.6633Z" stroke="#A61517" />
	<path d="M591.136 25.7181L602.29 14.6795L613.558 25.7151L600.694 38.3135C600.716 37.8926 600.703 37.4409 600.632 36.9835L591.136 25.7181ZM591.136 25.7181L598.949 33.5816L598.958 33.5898C598.97 33.6013 598.987 33.6171 599.007 33.6373C599.048 33.6776 599.104 33.7352 599.171 33.81C599.304 33.9594 599.482 34.1781 599.67 34.4641C600.045 35.0361 600.461 35.882 600.632 36.9835L591.136 25.7181ZM599.551 25.3696L599.187 25.7269L599.551 26.0841L601.933 28.4169L602.283 28.7596L602.633 28.4169L605.015 26.0841L605.38 25.7269L605.015 25.3696L602.633 23.0368L602.283 22.6942L601.933 23.0368L599.551 25.3696Z" stroke="#A61517" />
	<path d="M595.875 35.1869L595.875 35.187L595.882 35.194L595.882 35.194L595.883 35.1942L595.883 35.1944L595.883 35.1946L595.884 35.1957L595.894 35.2054C595.904 35.2147 595.918 35.2296 595.938 35.2499C595.978 35.2904 596.036 35.3522 596.107 35.4331C596.249 35.5953 596.441 35.832 596.635 36.1263C597.029 36.7218 597.408 37.517 597.449 38.3882C597.521 39.9529 597.158 41.3063 596.825 42.1913L588.616 50.2974L577.336 39.1593L584.121 32.4594L584.482 32.1036L584.121 31.7478L577.335 25.0464L581.477 20.9557L595.875 35.1869ZM588.242 41.8744L588.53 42.1589L588.868 41.9362L588.594 41.5186C588.868 41.9362 588.869 41.9361 588.869 41.936L588.869 41.9356L588.87 41.935L588.873 41.9334L588.879 41.9295L588.895 41.9181C588.908 41.909 588.924 41.8969 588.944 41.8815C588.984 41.8509 589.038 41.8075 589.1 41.7509C589.224 41.6378 589.385 41.4702 589.545 41.244C589.868 40.7879 590.181 40.0991 590.181 39.1593C590.181 38.2195 589.868 37.5306 589.545 37.0746C589.385 36.8483 589.224 36.6808 589.1 36.5677C589.038 36.511 588.984 36.4677 588.944 36.437C588.924 36.4217 588.908 36.4095 588.895 36.4004L588.879 36.3891L588.873 36.3851L588.87 36.3836L588.869 36.3829L588.869 36.3826C588.869 36.3825 588.868 36.3823 588.594 36.7999L588.868 36.3823L588.53 36.1597L588.242 36.4442L585.853 38.8035L585.493 39.1593L585.853 39.5151L588.242 41.8744Z" stroke="#A61517" />
	<path d="M574.81 27.3668L579.681 32.2359L574.8 37.1157L563.526 25.845L568.414 20.9586L572.586 25.1002L571.504 26.1818L571.15 26.5354L571.504 26.889L573.042 28.4272L573.396 28.7806L573.749 28.4273L574.81 27.3668Z" stroke="#A61517" />
	<path d="M539.598 12.4875L539.966 12.1291L539.598 11.7707L537.158 9.39764L536.809 9.05856L536.461 9.39764L534.021 11.7707L533.652 12.1291L534.021 12.4875L536.461 14.8606L536.809 15.1997L537.158 14.8606L539.598 12.4875ZM536.809 0.870477L548.298 12.0447L536.807 23.3191L525.258 12.1054L536.809 0.870477Z" stroke="#A61517" />
	<path d="M523.293 14.6633L527.575 18.681L523.282 22.705L518.997 18.6893L523.293 14.6633Z" stroke="#A61517" />
	<path d="M539.681 25.7181L550.835 14.6795L562.104 25.7151L549.239 38.3135C549.261 37.8926 549.249 37.4409 549.178 36.9835L539.681 25.7181ZM539.681 25.7181L547.495 33.5816L547.503 33.5898C547.516 33.6013 547.532 33.6171 547.553 33.6373C547.593 33.6776 547.649 33.7352 547.716 33.81C547.85 33.9594 548.028 34.1781 548.215 34.4641C548.59 35.0361 549.006 35.882 549.178 36.9835L539.681 25.7181ZM548.097 25.3696L547.732 25.7269L548.097 26.0841L550.479 28.4169L550.829 28.7596L551.179 28.4169L553.561 26.0841L553.925 25.7269L553.561 25.3696L551.179 23.0368L550.829 22.6942L550.479 23.0368L548.097 25.3696Z" stroke="#A61517" />
	<path d="M544.42 35.1869L544.42 35.187L544.428 35.194L544.428 35.194L544.428 35.1942L544.428 35.1944L544.428 35.1946L544.43 35.1957L544.439 35.2054C544.449 35.2147 544.464 35.2296 544.484 35.2499C544.523 35.2904 544.581 35.3522 544.652 35.4331C544.795 35.5953 544.986 35.832 545.181 36.1263C545.574 36.7218 545.954 37.517 545.994 38.3882C546.066 39.9529 545.704 41.3063 545.371 42.1913L537.161 50.2974L525.882 39.1593L532.667 32.4594L533.027 32.1036L532.667 31.7478L525.88 25.0464L530.023 20.9557L544.42 35.1869ZM536.788 41.8744L537.076 42.1589L537.414 41.9362L537.139 41.5186C537.414 41.9362 537.414 41.9361 537.414 41.936L537.415 41.9356L537.416 41.935L537.418 41.9334L537.424 41.9295L537.44 41.9181C537.453 41.909 537.47 41.8969 537.49 41.8815C537.53 41.8509 537.583 41.8075 537.645 41.7509C537.77 41.6378 537.931 41.4702 538.091 41.244C538.413 40.7879 538.726 40.0991 538.726 39.1593C538.726 38.2195 538.413 37.5306 538.091 37.0746C537.931 36.8483 537.77 36.6808 537.645 36.5677C537.583 36.511 537.53 36.4677 537.49 36.437C537.47 36.4217 537.453 36.4095 537.44 36.4004L537.424 36.3891L537.418 36.3851L537.416 36.3836L537.415 36.3829L537.414 36.3826C537.414 36.3825 537.414 36.3823 537.139 36.7999L537.414 36.3823L537.076 36.1597L536.788 36.4442L534.398 38.8035L534.038 39.1593L534.398 39.5151L536.788 41.8744Z" stroke="#A61517" />
	<path d="M523.356 27.3668L528.226 32.2359L523.345 37.1157L512.071 25.845L516.959 20.9586L521.131 25.1002L520.049 26.1818L519.695 26.5354L520.049 26.889L521.588 28.4272L521.941 28.7806L522.295 28.4273L523.356 27.3668Z" stroke="#A61517" />
	<path d="M488.143 12.4875L488.512 12.1291L488.143 11.7707L485.704 9.39764L485.355 9.05856L485.006 9.39764L482.567 11.7707L482.198 12.1291L482.567 12.4875L485.006 14.8606L485.355 15.1997L485.704 14.8606L488.143 12.4875ZM485.355 0.870477L496.843 12.0447L485.353 23.3191L473.804 12.1054L485.355 0.870477Z" stroke="#A61517" />
	<path d="M471.838 14.6633L476.12 18.681L471.827 22.705L467.543 18.6893L471.838 14.6633Z" stroke="#A61517" />
	<path d="M488.227 25.7181L499.381 14.6795L510.649 25.7151L497.785 38.3135C497.806 37.8926 497.794 37.4409 497.723 36.9835L488.227 25.7181ZM488.227 25.7181L496.04 33.5816L496.049 33.5898C496.061 33.6013 496.078 33.6171 496.098 33.6373C496.139 33.6776 496.195 33.7352 496.262 33.81C496.395 33.9594 496.573 34.1781 496.761 34.4641C497.136 35.0361 497.552 35.882 497.723 36.9835L488.227 25.7181ZM496.642 25.3696L496.277 25.7269L496.642 26.0841L499.024 28.4169L499.374 28.7596L499.724 28.4169L502.106 26.0841L502.471 25.7269L502.106 25.3696L499.724 23.0368L499.374 22.6942L499.024 23.0368L496.642 25.3696Z" stroke="#A61517" />
	<path d="M492.966 35.1869L492.966 35.187L492.973 35.194L492.973 35.194L492.974 35.1942L492.974 35.1944L492.974 35.1946L492.975 35.1957L492.985 35.2054C492.995 35.2147 493.01 35.2296 493.029 35.2499C493.069 35.2904 493.127 35.3522 493.198 35.4331C493.34 35.5953 493.532 35.832 493.726 36.1263C494.12 36.7218 494.499 37.517 494.54 38.3882C494.612 39.9529 494.249 41.3063 493.916 42.1913L485.707 50.2974L474.427 39.1593L481.212 32.4594L481.573 32.1036L481.212 31.7478L474.426 25.0464L478.568 20.9557L492.966 35.1869ZM485.333 41.8744L485.621 42.1589L485.96 41.9362L485.685 41.5186C485.96 41.9362 485.96 41.9361 485.96 41.936L485.96 41.9356L485.961 41.935L485.964 41.9334L485.97 41.9295L485.986 41.9181C485.999 41.909 486.015 41.8969 486.035 41.8815C486.075 41.8509 486.129 41.8075 486.191 41.7509C486.315 41.6378 486.476 41.4702 486.636 41.244C486.959 40.7879 487.272 40.0991 487.272 39.1593C487.272 38.2195 486.959 37.5306 486.636 37.0746C486.476 36.8483 486.315 36.6808 486.191 36.5677C486.129 36.511 486.075 36.4677 486.035 36.437C486.015 36.4217 485.999 36.4095 485.986 36.4004L485.97 36.3891L485.964 36.3851L485.961 36.3836L485.96 36.3829L485.96 36.3826C485.96 36.3825 485.96 36.3823 485.685 36.7999L485.96 36.3823L485.621 36.1597L485.333 36.4442L482.944 38.8035L482.584 39.1593L482.944 39.5151L485.333 41.8744Z" stroke="#A61517" />
	<path d="M471.901 27.3668L476.772 32.2359L471.891 37.1157L460.616 25.845L465.504 20.9586L469.676 25.1002L468.594 26.1818L468.241 26.5354L468.594 26.889L470.133 28.4272L470.487 28.7806L470.84 28.4273L471.901 27.3668Z" stroke="#A61517" />
	<path d="M436.689 12.4875L437.057 12.1291L436.689 11.7707L434.249 9.39764L433.9 9.05856L433.552 9.39764L431.112 11.7707L430.743 12.1291L431.112 12.4875L433.552 14.8606L433.9 15.1997L434.249 14.8606L436.689 12.4875ZM433.9 0.870477L445.389 12.0447L433.899 23.3191L422.35 12.1054L433.9 0.870477Z" stroke="#A61517" />
	<path d="M420.384 14.6633L424.666 18.681L420.373 22.705L416.088 18.6893L420.384 14.6633Z" stroke="#A61517" />
	<path d="M436.772 25.7181L447.926 14.6795L459.195 25.7151L446.33 38.3135C446.352 37.8926 446.34 37.4409 446.268 36.9835L436.772 25.7181ZM436.772 25.7181L444.585 33.5816L444.594 33.5898C444.607 33.6013 444.623 33.6171 444.644 33.6373C444.684 33.6776 444.74 33.7352 444.807 33.81C444.941 33.9594 445.119 34.1781 445.306 34.4641C445.681 35.0361 446.097 35.882 446.268 36.9835L436.772 25.7181ZM445.188 25.3696L444.823 25.7269L445.188 26.0841L447.57 28.4169L447.92 28.7596L448.269 28.4169L450.651 26.0841L451.016 25.7269L450.651 25.3696L448.269 23.0368L447.92 22.6942L447.57 23.0368L445.188 25.3696Z" stroke="#A61517" />
	<path d="M441.512 35.1869L441.511 35.187L441.519 35.194L441.519 35.194L441.519 35.1942L441.519 35.1944L441.519 35.1946L441.521 35.1957L441.531 35.2054C441.54 35.2147 441.555 35.2296 441.575 35.2499C441.614 35.2904 441.672 35.3522 441.743 35.4331C441.886 35.5953 442.077 35.832 442.272 36.1263C442.665 36.7218 443.045 37.517 443.085 38.3882C443.158 39.9529 442.795 41.3063 442.462 42.1913L434.252 50.2974L422.973 39.1593L429.758 32.4594L430.118 32.1036L429.758 31.7478L422.971 25.0464L427.114 20.9557L441.512 35.1869ZM433.879 41.8744L434.167 42.1589L434.505 41.9362L434.23 41.5186C434.505 41.9362 434.505 41.9361 434.505 41.936L434.506 41.9356L434.507 41.935L434.509 41.9334L434.515 41.9295L434.531 41.9181C434.544 41.909 434.561 41.8969 434.581 41.8815C434.621 41.8509 434.674 41.8075 434.736 41.7509C434.861 41.6378 435.022 41.4702 435.182 41.244C435.504 40.7879 435.817 40.0991 435.817 39.1593C435.817 38.2195 435.504 37.5306 435.182 37.0746C435.022 36.8483 434.861 36.6808 434.736 36.5677C434.674 36.511 434.621 36.4677 434.581 36.437C434.561 36.4217 434.544 36.4095 434.531 36.4004L434.515 36.3891L434.509 36.3851L434.507 36.3836L434.506 36.3829L434.505 36.3826C434.505 36.3825 434.505 36.3823 434.23 36.7999L434.505 36.3823L434.167 36.1597L433.879 36.4442L431.489 38.8035L431.129 39.1593L431.489 39.5151L433.879 41.8744Z" stroke="#A61517" />
	<path d="M420.447 27.3668L425.317 32.2359L420.436 37.1157L409.162 25.845L414.05 20.9586L418.222 25.1002L417.14 26.1818L416.786 26.5354L417.14 26.889L418.679 28.4272L419.032 28.7806L419.386 28.4273L420.447 27.3668Z" stroke="#A61517" />
	<path d="M385.234 12.4875L385.603 12.1291L385.234 11.7707L382.794 9.39764L382.446 9.05856L382.097 9.39764L379.657 11.7707L379.289 12.1291L379.657 12.4875L382.097 14.8606L382.446 15.1997L382.794 14.8606L385.234 12.4875ZM382.446 0.870477L393.934 12.0447L382.444 23.3191L370.895 12.1054L382.446 0.870477Z" stroke="#A61517" />
	<path d="M368.929 14.6633L373.211 18.681L368.918 22.705L364.634 18.6893L368.929 14.6633Z" stroke="#A61517" />
	<path d="M385.318 25.7181L396.472 14.6795L407.74 25.7151L394.876 38.3135C394.897 37.8926 394.885 37.4409 394.814 36.9835L385.318 25.7181ZM385.318 25.7181L393.131 33.5816L393.14 33.5898C393.152 33.6013 393.169 33.6171 393.189 33.6373C393.23 33.6776 393.286 33.7352 393.352 33.81C393.486 33.9594 393.664 34.1781 393.852 34.4641C394.227 35.0361 394.643 35.882 394.814 36.9835L385.318 25.7181ZM393.733 25.3696L393.368 25.7269L393.733 26.0841L396.115 28.4169L396.465 28.7596L396.815 28.4169L399.197 26.0841L399.562 25.7269L399.197 25.3696L396.815 23.0368L396.465 22.6942L396.115 23.0368L393.733 25.3696Z" stroke="#A61517" />
	<path d="M390.057 35.1869L390.057 35.187L390.064 35.194L390.064 35.194L390.065 35.1942L390.065 35.1944L390.065 35.1946L390.066 35.1957L390.076 35.2054C390.085 35.2147 390.1 35.2296 390.12 35.2499C390.159 35.2904 390.218 35.3522 390.289 35.4331C390.431 35.5953 390.623 35.832 390.817 36.1263C391.21 36.7218 391.59 37.517 391.63 38.3882C391.703 39.9529 391.34 41.3063 391.007 42.1913L382.798 50.2974L371.518 39.1593L378.303 32.4594L378.664 32.1036L378.303 31.7478L371.517 25.0464L375.659 20.9557L390.057 35.1869ZM382.424 41.8744L382.712 42.1589L383.05 41.9362L382.775 41.5186C383.05 41.9362 383.051 41.9361 383.051 41.936L383.051 41.9356L383.052 41.935L383.055 41.9334L383.06 41.9295L383.077 41.9181C383.09 41.909 383.106 41.8969 383.126 41.8815C383.166 41.8509 383.22 41.8075 383.282 41.7509C383.406 41.6378 383.567 41.4702 383.727 41.244C384.05 40.7879 384.363 40.0991 384.363 39.1593C384.363 38.2195 384.05 37.5306 383.727 37.0746C383.567 36.8483 383.406 36.6808 383.282 36.5677C383.22 36.511 383.166 36.4677 383.126 36.437C383.106 36.4217 383.09 36.4095 383.077 36.4004L383.06 36.3891L383.055 36.3851L383.052 36.3836L383.051 36.3829L383.051 36.3826C383.051 36.3825 383.05 36.3823 382.775 36.7999L383.05 36.3823L382.712 36.1597L382.424 36.4442L380.035 38.8035L379.674 39.1593L380.035 39.5151L382.424 41.8744Z" stroke="#A61517" />
	<path d="M368.992 27.3668L373.863 32.2359L368.981 37.1157L357.707 25.845L362.595 20.9586L366.767 25.1002L365.685 26.1818L365.332 26.5354L365.685 26.889L367.224 28.4272L367.577 28.7806L367.931 28.4273L368.992 27.3668Z" stroke="#A61517" />
	<path d="M334.234 12.4875L334.603 12.1291L334.234 11.7707L331.794 9.39764L331.446 9.05856L331.097 9.39764L328.657 11.7707L328.289 12.1291L328.657 12.4875L331.097 14.8606L331.446 15.1997L331.794 14.8606L334.234 12.4875ZM331.446 0.870477L342.934 12.0447L331.444 23.3191L319.895 12.1054L331.446 0.870477Z" stroke="#A61517" />
	<path d="M317.929 14.6633L322.211 18.681L317.918 22.705L313.634 18.6893L317.929 14.6633Z" stroke="#A61517" />
	<path d="M334.318 25.7181L345.472 14.6795L356.74 25.7151L343.876 38.3135C343.897 37.8926 343.885 37.4409 343.814 36.9835L334.318 25.7181ZM334.318 25.7181L342.131 33.5816L342.14 33.5898C342.152 33.6013 342.169 33.6171 342.189 33.6373C342.23 33.6776 342.286 33.7352 342.352 33.81C342.486 33.9594 342.664 34.1781 342.852 34.4641C343.227 35.0361 343.643 35.882 343.814 36.9835L334.318 25.7181ZM342.733 25.3696L342.368 25.7269L342.733 26.0841L345.115 28.4169L345.465 28.7596L345.815 28.4169L348.197 26.0841L348.562 25.7269L348.197 25.3696L345.815 23.0368L345.465 22.6942L345.115 23.0368L342.733 25.3696Z" stroke="#A61517" />
	<path d="M339.057 35.1869L339.057 35.187L339.064 35.194L339.064 35.194L339.065 35.1942L339.065 35.1944L339.065 35.1946L339.066 35.1957L339.076 35.2054C339.085 35.2147 339.1 35.2296 339.12 35.2499C339.159 35.2904 339.218 35.3522 339.289 35.4331C339.431 35.5953 339.623 35.832 339.817 36.1263C340.21 36.7218 340.59 37.517 340.63 38.3882C340.703 39.9529 340.34 41.3063 340.007 42.1913L331.798 50.2974L320.518 39.1593L327.303 32.4594L327.664 32.1036L327.303 31.7478L320.517 25.0464L324.659 20.9557L339.057 35.1869ZM331.424 41.8744L331.712 42.1589L332.05 41.9362L331.775 41.5186C332.05 41.9362 332.051 41.9361 332.051 41.936L332.051 41.9356L332.052 41.935L332.055 41.9334L332.06 41.9295L332.077 41.9181C332.09 41.909 332.106 41.8969 332.126 41.8815C332.166 41.8509 332.22 41.8075 332.282 41.7509C332.406 41.6378 332.567 41.4702 332.727 41.244C333.05 40.7879 333.363 40.0991 333.363 39.1593C333.363 38.2195 333.05 37.5306 332.727 37.0746C332.567 36.8483 332.406 36.6808 332.282 36.5677C332.22 36.511 332.166 36.4677 332.126 36.437C332.106 36.4217 332.09 36.4095 332.077 36.4004L332.06 36.3891L332.055 36.3851L332.052 36.3836L332.051 36.3829L332.051 36.3826C332.051 36.3825 332.05 36.3823 331.775 36.7999L332.05 36.3823L331.712 36.1597L331.424 36.4442L329.035 38.8035L328.674 39.1593L329.035 39.5151L331.424 41.8744Z" stroke="#A61517" />
	<path d="M317.992 27.3668L322.863 32.2359L317.981 37.1157L306.707 25.845L311.595 20.9586L315.767 25.1002L314.685 26.1818L314.332 26.5354L314.685 26.889L316.224 28.4272L316.577 28.7806L316.931 28.4273L317.992 27.3668Z" stroke="#A61517" />
	<path d="M283.234 12.4875L283.603 12.1291L283.234 11.7707L280.794 9.39764L280.446 9.05856L280.097 9.39764L277.657 11.7707L277.289 12.1291L277.657 12.4875L280.097 14.8606L280.446 15.1997L280.794 14.8606L283.234 12.4875ZM280.446 0.870477L291.934 12.0447L280.444 23.3191L268.895 12.1054L280.446 0.870477Z" stroke="#A61517" />
	<path d="M266.929 14.6633L271.211 18.681L266.918 22.705L262.634 18.6893L266.929 14.6633Z" stroke="#A61517" />
	<path d="M283.318 25.7181L294.472 14.6795L305.74 25.7151L292.876 38.3135C292.897 37.8926 292.885 37.4409 292.814 36.9835L283.318 25.7181ZM283.318 25.7181L291.131 33.5816L291.14 33.5898C291.152 33.6013 291.169 33.6171 291.189 33.6373C291.23 33.6776 291.286 33.7352 291.352 33.81C291.486 33.9594 291.664 34.1781 291.852 34.4641C292.227 35.0361 292.643 35.882 292.814 36.9835L283.318 25.7181ZM291.733 25.3696L291.368 25.7269L291.733 26.0841L294.115 28.4169L294.465 28.7596L294.815 28.4169L297.197 26.0841L297.562 25.7269L297.197 25.3696L294.815 23.0368L294.465 22.6942L294.115 23.0368L291.733 25.3696Z" stroke="#A61517" />
	<path d="M288.057 35.1869L288.057 35.187L288.064 35.194L288.064 35.194L288.065 35.1942L288.065 35.1944L288.065 35.1946L288.066 35.1957L288.076 35.2054C288.085 35.2147 288.1 35.2296 288.12 35.2499C288.159 35.2904 288.218 35.3522 288.289 35.4331C288.431 35.5953 288.623 35.832 288.817 36.1263C289.21 36.7218 289.59 37.517 289.63 38.3882C289.703 39.9529 289.34 41.3063 289.007 42.1913L280.798 50.2974L269.518 39.1593L276.303 32.4594L276.664 32.1036L276.303 31.7478L269.517 25.0464L273.659 20.9557L288.057 35.1869ZM280.424 41.8744L280.712 42.1589L281.05 41.9362L280.775 41.5186C281.05 41.9362 281.051 41.9361 281.051 41.936L281.051 41.9356L281.052 41.935L281.055 41.9334L281.06 41.9295L281.077 41.9181C281.09 41.909 281.106 41.8969 281.126 41.8815C281.166 41.8509 281.22 41.8075 281.282 41.7509C281.406 41.6378 281.567 41.4702 281.727 41.244C282.05 40.7879 282.363 40.0991 282.363 39.1593C282.363 38.2195 282.05 37.5306 281.727 37.0746C281.567 36.8483 281.406 36.6808 281.282 36.5677C281.22 36.511 281.166 36.4677 281.126 36.437C281.106 36.4217 281.09 36.4095 281.077 36.4004L281.06 36.3891L281.055 36.3851L281.052 36.3836L281.051 36.3829L281.051 36.3826C281.051 36.3825 281.05 36.3823 280.775 36.7999L281.05 36.3823L280.712 36.1597L280.424 36.4442L278.035 38.8035L277.674 39.1593L278.035 39.5151L280.424 41.8744Z" stroke="#A61517" />
	<path d="M266.992 27.3668L271.863 32.2359L266.981 37.1157L255.707 25.845L260.595 20.9586L264.767 25.1002L263.685 26.1818L263.332 26.5354L263.685 26.889L265.224 28.4272L265.577 28.7806L265.931 28.4273L266.992 27.3668Z" stroke="#A61517" />
	<path d="M232.234 12.4875L232.603 12.1291L232.234 11.7707L229.794 9.39764L229.446 9.05856L229.097 9.39764L226.657 11.7707L226.289 12.1291L226.657 12.4875L229.097 14.8606L229.446 15.1997L229.794 14.8606L232.234 12.4875ZM229.446 0.870477L240.934 12.0447L229.444 23.3191L217.895 12.1054L229.446 0.870477Z" stroke="#A61517" />
	<path d="M215.929 14.6633L220.211 18.681L215.918 22.705L211.634 18.6893L215.929 14.6633Z" stroke="#A61517" />
	<path d="M232.318 25.7181L243.472 14.6795L254.74 25.7151L241.876 38.3135C241.897 37.8926 241.885 37.4409 241.814 36.9835L232.318 25.7181ZM232.318 25.7181L240.131 33.5816L240.14 33.5898C240.152 33.6013 240.169 33.6171 240.189 33.6373C240.23 33.6776 240.286 33.7352 240.352 33.81C240.486 33.9594 240.664 34.1781 240.852 34.4641C241.227 35.0361 241.643 35.882 241.814 36.9835L232.318 25.7181ZM240.733 25.3696L240.368 25.7269L240.733 26.0841L243.115 28.4169L243.465 28.7596L243.815 28.4169L246.197 26.0841L246.562 25.7269L246.197 25.3696L243.815 23.0368L243.465 22.6942L243.115 23.0368L240.733 25.3696Z" stroke="#A61517" />
	<path d="M237.057 35.1869L237.057 35.187L237.064 35.194L237.064 35.194L237.065 35.1942L237.065 35.1944L237.065 35.1946L237.066 35.1957L237.076 35.2054C237.085 35.2147 237.1 35.2296 237.12 35.2499C237.159 35.2904 237.218 35.3522 237.289 35.4331C237.431 35.5953 237.623 35.832 237.817 36.1263C238.21 36.7218 238.59 37.517 238.63 38.3882C238.703 39.9529 238.34 41.3063 238.007 42.1913L229.798 50.2974L218.518 39.1593L225.303 32.4594L225.664 32.1036L225.303 31.7478L218.517 25.0464L222.659 20.9557L237.057 35.1869ZM229.424 41.8744L229.712 42.1589L230.05 41.9362L229.775 41.5186C230.05 41.9362 230.051 41.9361 230.051 41.936L230.051 41.9356L230.052 41.935L230.055 41.9334L230.06 41.9295L230.077 41.9181C230.09 41.909 230.106 41.8969 230.126 41.8815C230.166 41.8509 230.22 41.8075 230.282 41.7509C230.406 41.6378 230.567 41.4702 230.727 41.244C231.05 40.7879 231.363 40.0991 231.363 39.1593C231.363 38.2195 231.05 37.5306 230.727 37.0746C230.567 36.8483 230.406 36.6808 230.282 36.5677C230.22 36.511 230.166 36.4677 230.126 36.437C230.106 36.4217 230.09 36.4095 230.077 36.4004L230.06 36.3891L230.055 36.3851L230.052 36.3836L230.051 36.3829L230.051 36.3826C230.051 36.3825 230.05 36.3823 229.775 36.7999L230.05 36.3823L229.712 36.1597L229.424 36.4442L227.035 38.8035L226.674 39.1593L227.035 39.5151L229.424 41.8744Z" stroke="#A61517" />
	<path d="M215.992 27.3668L220.863 32.2359L215.981 37.1157L204.707 25.845L209.595 20.9586L213.767 25.1002L212.685 26.1818L212.332 26.5354L212.685 26.889L214.224 28.4272L214.577 28.7806L214.931 28.4273L215.992 27.3668Z" stroke="#A61517" />
	<path d="M181.234 12.4875L181.603 12.1291L181.234 11.7707L178.794 9.39764L178.446 9.05856L178.097 9.39764L175.657 11.7707L175.289 12.1291L175.657 12.4875L178.097 14.8606L178.446 15.1997L178.794 14.8606L181.234 12.4875ZM178.446 0.870477L189.934 12.0447L178.444 23.3191L166.895 12.1054L178.446 0.870477Z" stroke="#A61517" />
	<path d="M164.929 14.6633L169.211 18.681L164.918 22.705L160.634 18.6893L164.929 14.6633Z" stroke="#A61517" />
	<path d="M181.318 25.7181L192.472 14.6795L203.74 25.7151L190.876 38.3135C190.897 37.8926 190.885 37.4409 190.814 36.9835L181.318 25.7181ZM181.318 25.7181L189.131 33.5816L189.14 33.5898C189.152 33.6013 189.169 33.6171 189.189 33.6373C189.23 33.6776 189.286 33.7352 189.352 33.81C189.486 33.9594 189.664 34.1781 189.852 34.4641C190.227 35.0361 190.643 35.882 190.814 36.9835L181.318 25.7181ZM189.733 25.3696L189.368 25.7269L189.733 26.0841L192.115 28.4169L192.465 28.7596L192.815 28.4169L195.197 26.0841L195.562 25.7269L195.197 25.3696L192.815 23.0368L192.465 22.6942L192.115 23.0368L189.733 25.3696Z" stroke="#A61517" />
	<path d="M186.057 35.1869L186.057 35.187L186.064 35.194L186.064 35.194L186.065 35.1942L186.065 35.1944L186.065 35.1946L186.066 35.1957L186.076 35.2054C186.085 35.2147 186.1 35.2296 186.12 35.2499C186.159 35.2904 186.218 35.3522 186.289 35.4331C186.431 35.5953 186.623 35.832 186.817 36.1263C187.21 36.7218 187.59 37.517 187.63 38.3882C187.703 39.9529 187.34 41.3063 187.007 42.1913L178.798 50.2974L167.518 39.1593L174.303 32.4594L174.664 32.1036L174.303 31.7478L167.517 25.0464L171.659 20.9557L186.057 35.1869ZM178.424 41.8744L178.712 42.1589L179.05 41.9362L178.775 41.5186C179.05 41.9362 179.051 41.9361 179.051 41.936L179.051 41.9356L179.052 41.935L179.055 41.9334L179.06 41.9295L179.077 41.9181C179.09 41.909 179.106 41.8969 179.126 41.8815C179.166 41.8509 179.22 41.8075 179.282 41.7509C179.406 41.6378 179.567 41.4702 179.727 41.244C180.05 40.7879 180.363 40.0991 180.363 39.1593C180.363 38.2195 180.05 37.5306 179.727 37.0746C179.567 36.8483 179.406 36.6808 179.282 36.5677C179.22 36.511 179.166 36.4677 179.126 36.437C179.106 36.4217 179.09 36.4095 179.077 36.4004L179.06 36.3891L179.055 36.3851L179.052 36.3836L179.051 36.3829L179.051 36.3826C179.051 36.3825 179.05 36.3823 178.775 36.7999L179.05 36.3823L178.712 36.1597L178.424 36.4442L176.035 38.8035L175.674 39.1593L176.035 39.5151L178.424 41.8744Z" stroke="#A61517" />
	<path d="M164.992 27.3668L169.863 32.2359L164.981 37.1157L153.707 25.845L158.595 20.9586L162.767 25.1002L161.685 26.1818L161.332 26.5354L161.685 26.889L163.224 28.4272L163.577 28.7806L163.931 28.4273L164.992 27.3668Z" stroke="#A61517" />
	<path d="M130.234 12.4875L130.603 12.1291L130.234 11.7707L127.794 9.39764L127.446 9.05856L127.097 9.39764L124.657 11.7707L124.289 12.1291L124.657 12.4875L127.097 14.8606L127.446 15.1997L127.794 14.8606L130.234 12.4875ZM127.446 0.870477L138.934 12.0447L127.444 23.3191L115.895 12.1054L127.446 0.870477Z" stroke="#A61517" />
	<path d="M113.929 14.6633L118.211 18.681L113.918 22.705L109.634 18.6893L113.929 14.6633Z" stroke="#A61517" />
	<path d="M130.318 25.7181L141.472 14.6795L152.74 25.7151L139.876 38.3135C139.897 37.8926 139.885 37.4409 139.814 36.9835L130.318 25.7181ZM130.318 25.7181L138.131 33.5816L138.14 33.5898C138.152 33.6013 138.169 33.6171 138.189 33.6373C138.23 33.6776 138.286 33.7352 138.352 33.81C138.486 33.9594 138.664 34.1781 138.852 34.4641C139.227 35.0361 139.643 35.882 139.814 36.9835L130.318 25.7181ZM138.733 25.3696L138.368 25.7269L138.733 26.0841L141.115 28.4169L141.465 28.7596L141.815 28.4169L144.197 26.0841L144.562 25.7269L144.197 25.3696L141.815 23.0368L141.465 22.6942L141.115 23.0368L138.733 25.3696Z" stroke="#A61517" />
	<path d="M135.057 35.1869L135.057 35.187L135.064 35.194L135.064 35.194L135.065 35.1942L135.065 35.1944L135.065 35.1946L135.066 35.1957L135.076 35.2054C135.085 35.2147 135.1 35.2296 135.12 35.2499C135.159 35.2904 135.218 35.3522 135.289 35.4331C135.431 35.5953 135.623 35.832 135.817 36.1263C136.21 36.7218 136.59 37.517 136.63 38.3882C136.703 39.9529 136.34 41.3063 136.007 42.1913L127.798 50.2974L116.518 39.1593L123.303 32.4594L123.664 32.1036L123.303 31.7478L116.517 25.0464L120.659 20.9557L135.057 35.1869ZM127.424 41.8744L127.712 42.1589L128.05 41.9362L127.775 41.5186C128.05 41.9362 128.051 41.9361 128.051 41.936L128.051 41.9356L128.052 41.935L128.055 41.9334L128.06 41.9295L128.077 41.9181C128.09 41.909 128.106 41.8969 128.126 41.8815C128.166 41.8509 128.22 41.8075 128.282 41.7509C128.406 41.6378 128.567 41.4702 128.727 41.244C129.05 40.7879 129.363 40.0991 129.363 39.1593C129.363 38.2195 129.05 37.5306 128.727 37.0746C128.567 36.8483 128.406 36.6808 128.282 36.5677C128.22 36.511 128.166 36.4677 128.126 36.437C128.106 36.4217 128.09 36.4095 128.077 36.4004L128.06 36.3891L128.055 36.3851L128.052 36.3836L128.051 36.3829L128.051 36.3826C128.051 36.3825 128.05 36.3823 127.775 36.7999L128.05 36.3823L127.712 36.1597L127.424 36.4442L125.035 38.8035L124.674 39.1593L125.035 39.5151L127.424 41.8744Z" stroke="#A61517" />
	<path d="M113.992 27.3668L118.863 32.2359L113.981 37.1157L102.707 25.845L107.595 20.9586L111.767 25.1002L110.685 26.1818L110.332 26.5354L110.685 26.889L112.224 28.4272L112.577 28.7806L112.931 28.4273L113.992 27.3668Z" stroke="#A61517" />
	<path d="M79.2342 12.4875L79.6027 12.1291L79.2342 11.7707L76.7944 9.39764L76.4458 9.05856L76.0972 9.39764L73.6574 11.7707L73.2889 12.1291L73.6574 12.4875L76.0972 14.8606L76.4458 15.1997L76.7944 14.8606L79.2342 12.4875ZM76.4458 0.870477L87.9343 12.0447L76.4439 23.3191L64.8949 12.1054L76.4458 0.870477Z" stroke="#A61517" />
	<path d="M62.929 14.6633L67.2113 18.681L62.918 22.705L58.6335 18.6893L62.929 14.6633Z" stroke="#A61517" />
	<path d="M79.3177 25.7181L90.4716 14.6795L101.74 25.7151L88.8756 38.3135C88.8972 37.8926 88.8849 37.4409 88.8138 36.9835L79.3177 25.7181ZM79.3177 25.7181L87.1308 33.5816L87.1397 33.5898C87.152 33.6013 87.1686 33.6171 87.1889 33.6373C87.2296 33.6776 87.2856 33.7352 87.3524 33.81C87.486 33.9594 87.664 34.1781 87.8516 34.4641C88.2266 35.0361 88.6427 35.882 88.8138 36.9835L79.3177 25.7181ZM87.733 25.3696L87.3683 25.7269L87.733 26.0841L90.1151 28.4169L90.465 28.7596L90.8148 28.4169L93.1969 26.0841L93.5617 25.7269L93.1969 25.3696L90.8148 23.0368L90.465 22.6942L90.1151 23.0368L87.733 25.3696Z" stroke="#A61517" />
	<path d="M84.057 35.1869L84.0569 35.187L84.0642 35.194L84.0643 35.194L84.0645 35.1942L84.0647 35.1944L84.0649 35.1946L84.066 35.1957L84.076 35.2054C84.0854 35.2147 84.1004 35.2296 84.1201 35.2499C84.1595 35.2904 84.2177 35.3522 84.2887 35.4331C84.4311 35.5953 84.6229 35.832 84.8172 36.1263C85.2104 36.7218 85.59 37.517 85.6304 38.3882C85.7029 39.9529 85.34 41.3063 85.0073 42.1913L76.7979 50.2974L65.5181 39.1593L72.3032 32.4594L72.6635 32.1036L72.3032 31.7478L65.5165 25.0464L69.6593 20.9557L84.057 35.1869ZM76.4241 41.8744L76.7122 42.1589L77.0504 41.9362L76.7754 41.5186C77.0504 41.9362 77.0506 41.9361 77.0508 41.936L77.0513 41.9356L77.0523 41.935L77.0546 41.9334L77.0605 41.9295L77.0767 41.9181C77.0896 41.909 77.1063 41.8969 77.1263 41.8815C77.1662 41.8509 77.2196 41.8075 77.2819 41.7509C77.4061 41.6378 77.5673 41.4702 77.7273 41.244C78.0498 40.7879 78.3626 40.0991 78.3626 39.1593C78.3626 38.2195 78.0498 37.5306 77.7273 37.0746C77.5673 36.8483 77.4061 36.6808 77.2819 36.5677C77.2196 36.511 77.1662 36.4677 77.1263 36.437C77.1063 36.4217 77.0896 36.4095 77.0767 36.4004L77.0605 36.3891L77.0546 36.3851L77.0523 36.3836L77.0513 36.3829L77.0508 36.3826C77.0506 36.3825 77.0504 36.3823 76.7754 36.7999L77.0504 36.3823L76.7122 36.1597L76.4241 36.4442L74.0348 38.8035L73.6745 39.1593L74.0348 39.5151L76.4241 41.8744Z" stroke="#A61517" />
	<path d="M62.992 27.3668L67.8626 32.2359L62.9814 37.1157L51.7072 25.845L56.5951 20.9586L60.7672 25.1002L59.6853 26.1818L59.3316 26.5354L59.6853 26.889L61.224 28.4272L61.5775 28.7806L61.931 28.4273L62.992 27.3668Z" stroke="#A61517" />
	<path d="M28.2342 12.4875L28.6027 12.1291L28.2342 11.7707L25.7944 9.39764L25.4458 9.05856L25.0972 9.39764L22.6574 11.7707L22.2889 12.1291L22.6574 12.4875L25.0972 14.8606L25.4458 15.1997L25.7944 14.8606L28.2342 12.4875ZM25.4458 0.870477L36.9343 12.0447L25.4439 23.3191L13.8949 12.1054L25.4458 0.870477Z" stroke="#A61517" />
	<path d="M11.929 14.6633L16.2113 18.681L11.918 22.705L7.6335 18.6893L11.929 14.6633Z" stroke="#A61517" />
	<path d="M28.3177 25.7181L39.4716 14.6795L50.74 25.7151L37.8756 38.3135C37.8972 37.8926 37.8849 37.4409 37.8138 36.9835L28.3177 25.7181ZM28.3177 25.7181L36.1308 33.5816L36.1397 33.5898C36.152 33.6013 36.1686 33.6171 36.1889 33.6373C36.2296 33.6776 36.2856 33.7352 36.3524 33.81C36.486 33.9594 36.664 34.1781 36.8516 34.4641C37.2266 35.0361 37.6427 35.882 37.8138 36.9835L28.3177 25.7181ZM36.733 25.3696L36.3683 25.7269L36.733 26.0841L39.1151 28.4169L39.465 28.7596L39.8148 28.4169L42.1969 26.0841L42.5617 25.7269L42.1969 25.3696L39.8148 23.0368L39.465 22.6942L39.1151 23.0368L36.733 25.3696Z" stroke="#A61517" />
	<path d="M33.057 35.1869L33.0569 35.187L33.0642 35.194L33.0643 35.194L33.0645 35.1942L33.0647 35.1944L33.0649 35.1946L33.066 35.1957L33.076 35.2054C33.0854 35.2147 33.1004 35.2296 33.1201 35.2499C33.1595 35.2904 33.2177 35.3522 33.2887 35.4331C33.4311 35.5953 33.6229 35.832 33.8172 36.1263C34.2104 36.7218 34.59 37.517 34.6304 38.3882C34.7029 39.9529 34.34 41.3063 34.0073 42.1913L25.7979 50.2974L14.5181 39.1593L21.3032 32.4594L21.6635 32.1036L21.3032 31.7478L14.5165 25.0464L18.6593 20.9557L33.057 35.1869ZM25.4241 41.8744L25.7122 42.1589L26.0504 41.9362L25.7754 41.5186C26.0504 41.9362 26.0506 41.9361 26.0508 41.936L26.0513 41.9356L26.0523 41.935L26.0546 41.9334L26.0605 41.9295L26.0767 41.9181C26.0896 41.909 26.1063 41.8969 26.1263 41.8815C26.1662 41.8509 26.2196 41.8075 26.2819 41.7509C26.4061 41.6378 26.5673 41.4702 26.7273 41.244C27.0498 40.7879 27.3626 40.0991 27.3626 39.1593C27.3626 38.2195 27.0498 37.5306 26.7273 37.0746C26.5673 36.8483 26.4061 36.6808 26.2819 36.5677C26.2196 36.511 26.1662 36.4677 26.1263 36.437C26.1063 36.4217 26.0896 36.4095 26.0767 36.4004L26.0605 36.3891L26.0546 36.3851L26.0523 36.3836L26.0513 36.3829L26.0508 36.3826C26.0506 36.3825 26.0504 36.3823 25.7754 36.7999L26.0504 36.3823L25.7122 36.1597L25.4241 36.4442L23.0348 38.8035L22.6745 39.1593L23.0348 39.5151L25.4241 41.8744Z" stroke="#A61517" />
	<path d="M11.992 27.3668L16.8626 32.2359L11.9814 37.1157L0.707216 25.845L5.59514 20.9586L9.76724 25.1002L8.68531 26.1818L8.3316 26.5354L8.68531 26.889L10.224 28.4272L10.5775 28.7806L10.931 28.4273L11.992 27.3668Z" stroke="#A61517" />
</svg>
