<svg xmlns="http://www.w3.org/2000/svg" width="31" height="40" viewBox="0 0 31 40" fill="none">
  <path d="M10.2449 18.3525L19.6379 9.13607L10.2449 0L0.80249 9.1842L10.2449 18.3525ZM12.1228 9.20221L10.2449 11.0287L8.36714 9.20221L10.2449 7.37576L12.1228 9.20221Z" fill="#A61517"/>
  <path d="M30.2631 19.6589L21.0387 10.6251L11.9106 19.6589L18.2022 25.9909C18.2022 25.9909 19.1407 26.8249 19.384 28.3908C19.5039 29.162 19.3875 29.9225 19.2681 30.4265L30.2631 19.6589ZM19.2017 19.6679L21.0351 17.8724L22.8685 19.6679L21.0351 21.4634L19.2017 19.6679Z" fill="#A61517"/>
  <path d="M17.6984 29.3951C17.6273 27.8611 16.3735 26.6753 16.3735 26.6753L5.02178 15.4547L1.2854 19.1442L6.78616 24.5759L1.28662 30.0063L10.5159 39.1197L17.1641 32.5552C17.4399 31.8451 17.7596 30.7152 17.6984 29.3951ZM10.4987 31.8222L8.65967 30.0063L10.4987 28.1904C10.4987 28.1904 11.3354 28.7413 11.3354 30.0063C11.3354 31.2714 10.4987 31.8222 10.4987 31.8222Z" fill="#A61517"/>
</svg>