<svg width="41" height="41" viewBox="0 0 41 41" fill="none" xmlns="http://www.w3.org/2000/svg">
<g clip-path="url(#clip0_188_479)">
<path fill-rule="evenodd" clip-rule="evenodd" d="M20.7945 0.25C9.73264 0.25 0.734619 9.3332 0.734619 20.4998C0.734619 24.9284 2.14979 29.0354 4.55547 32.369L2.05527 39.8926L9.7679 37.405C12.9401 39.524 16.7257 40.75 20.8061 40.75C31.868 40.75 40.866 31.6665 40.866 20.5002C40.866 9.33356 31.868 0.250335 20.8061 0.250335L20.7945 0.25ZM15.1927 10.536C14.8036 9.5956 14.5087 9.56 13.9193 9.53581C13.7186 9.52405 13.4949 9.5123 13.247 9.5123C12.4801 9.5123 11.6783 9.73841 11.1947 10.2383C10.6053 10.8455 9.14284 12.2619 9.14284 15.1668C9.14284 18.0717 11.242 20.8812 11.5249 21.2743C11.8198 21.6667 15.6173 27.7143 21.5137 30.1791C26.1247 32.1076 27.493 31.9288 28.5424 31.7027C30.0754 31.3694 31.9978 30.2261 32.4814 28.8456C32.965 27.4644 32.965 26.2857 32.8232 26.0358C32.6818 25.7858 32.2924 25.6433 31.7029 25.3453C31.1135 25.0477 28.2475 23.6191 27.705 23.4286C27.1741 23.2263 26.6673 23.2979 26.2665 23.8694C25.7004 24.667 25.1462 25.4767 24.6979 25.9645C24.3441 26.3455 23.766 26.3932 23.2827 26.1907C22.634 25.9172 20.8182 25.2738 18.5772 23.2619C16.8435 21.7026 15.6643 19.7624 15.3225 19.1791C14.9803 18.5841 15.2872 18.2383 15.5581 17.9171C15.853 17.5479 16.1359 17.2862 16.4308 16.9408C16.7257 16.5957 16.8908 16.417 17.0795 16.0121C17.2802 15.6194 17.1384 15.2145 16.9969 14.9169C16.8555 14.6192 15.6763 11.7143 15.1927 10.536Z" fill="#0A1220"/>
</g>
<defs>
<clipPath id="clip0_188_479">
<rect width="40.1314" height="40.5" fill="white" transform="translate(0.734619 0.25)"/>
</clipPath>
</defs>
</svg>
