<svg width="40" height="40" viewBox="0 0 65 65" fill="none" xmlns="http://www.w3.org/2000/svg">
	<path d="M59.5827 57.5522H5.41602C4.3056 57.5522 3.38477 58.4731 3.38477 59.5835C3.38477 60.6939 4.3056 61.6147 5.41602 61.6147H59.5827C60.6931 61.6147 61.6139 60.6939 61.6139 59.5835C61.6139 58.4731 60.6931 57.5522 59.5827 57.5522Z" fill="#A61517" />
	<path opacity="0.4" d="M46.0417 5.4165H18.9583C10.8333 5.4165 8.125 10.2644 8.125 16.2498V59.5832H56.875V16.2498C56.875 10.2644 54.1667 5.4165 46.0417 5.4165Z" fill="#A61517" />
	<path d="M27.084 46.7187H18.959C17.8486 46.7187 16.9277 45.7979 16.9277 44.6875C16.9277 43.5771 17.8486 42.6562 18.959 42.6562H27.084C28.1944 42.6562 29.1152 43.5771 29.1152 44.6875C29.1152 45.7979 28.1944 46.7187 27.084 46.7187Z" fill="#A61517" />
	<path d="M46.041 46.7187H37.916C36.8056 46.7187 35.8848 45.7979 35.8848 44.6875C35.8848 43.5771 36.8056 42.6562 37.916 42.6562H46.041C47.1514 42.6562 48.0723 43.5771 48.0723 44.6875C48.0723 45.7979 47.1514 46.7187 46.041 46.7187Z" fill="#A61517" />
	<path d="M27.084 34.5312H18.959C17.8486 34.5312 16.9277 33.6104 16.9277 32.5C16.9277 31.3896 17.8486 30.4688 18.959 30.4688H27.084C28.1944 30.4688 29.1152 31.3896 29.1152 32.5C29.1152 33.6104 28.1944 34.5312 27.084 34.5312Z" fill="#A61517" />
	<path d="M46.041 34.5312H37.916C36.8056 34.5312 35.8848 33.6104 35.8848 32.5C35.8848 31.3896 36.8056 30.4688 37.916 30.4688H46.041C47.1514 30.4688 48.0723 31.3896 48.0723 32.5C48.0723 33.6104 47.1514 34.5312 46.041 34.5312Z" fill="#A61517" />
	<path d="M27.084 22.3437H18.959C17.8486 22.3437 16.9277 21.4229 16.9277 20.3125C16.9277 19.2021 17.8486 18.2812 18.959 18.2812H27.084C28.1944 18.2812 29.1152 19.2021 29.1152 20.3125C29.1152 21.4229 28.1944 22.3437 27.084 22.3437Z" fill="#A61517" />
	<path d="M46.041 22.3437H37.916C36.8056 22.3437 35.8848 21.4229 35.8848 20.3125C35.8848 19.2021 36.8056 18.2812 37.916 18.2812H46.041C47.1514 18.2812 48.0723 19.2021 48.0723 20.3125C48.0723 21.4229 47.1514 22.3437 46.041 22.3437Z" fill="#A61517" />
</svg>
