<svg width="40" height="40" viewBox="0 0 64 64" fill="none" xmlns="http://www.w3.org/2000/svg">
	<path opacity="0.4" d="M17.9473 52.5333C20.134 50.1866 23.4673 50.3733 25.3873 52.9333L28.0807 56.5333C30.2407 59.3866 33.734 59.3866 35.894 56.5333L38.5873 52.9333C40.5073 50.3733 43.8407 50.1866 46.0273 52.5333C50.774 57.5999 54.6407 55.9199 54.6407 48.8266V18.7733C54.6673 8.02658 52.1607 5.33325 42.0807 5.33325H21.9207C11.8407 5.33325 9.33398 8.02658 9.33398 18.7733V48.7999C9.33398 55.9199 13.2273 57.5733 17.9473 52.5333Z" fill="#A61517" />
	<path d="M42.6673 20.6667H21.334C20.2407 20.6667 19.334 19.7601 19.334 18.6667C19.334 17.5734 20.2407 16.6667 21.334 16.6667H42.6673C43.7607 16.6667 44.6673 17.5734 44.6673 18.6667C44.6673 19.7601 43.7607 20.6667 42.6673 20.6667Z" fill="#A61517" />
	<path d="M40 31.3333H24C22.9067 31.3333 22 30.4266 22 29.3333C22 28.2399 22.9067 27.3333 24 27.3333H40C41.0933 27.3333 42 28.2399 42 29.3333C42 30.4266 41.0933 31.3333 40 31.3333Z" fill="#A61517" />
</svg>
