<svg xmlns="http://www.w3.org/2000/svg" width="16" height="19" viewBox="0 0 18 21" fill="none">
    <path d="M17.4938 6.7C16.4538 2.07 12.4138 0 8.87377 0C8.87377 0 8.87377 0 8.86377 0C5.33377 0 1.30377 2.07 0.253774 6.69C-0.926226 11.85 2.23377 16.22 5.09377 18.98C6.15377 20 7.51377 20.51 8.87377 20.51C10.2338 20.51 11.5938 20 12.6438 18.98C15.5038 16.22 18.6638 11.86 17.4938 6.7ZM12.1538 7.53L8.15377 11.53C8.00377 11.68 7.81377 11.75 7.62377 11.75C7.43377 11.75 7.24377 11.68 7.09377 11.53L5.59377 10.03C5.30377 9.74 5.30377 9.26 5.59377 8.97C5.88377 8.68 6.36377 8.68 6.65377 8.97L7.62377 9.94L11.0938 6.47C11.3838 6.18 11.8638 6.18 12.1538 6.47C12.4438 6.76 12.4438 7.24 12.1538 7.53Z" fill="#A61517" />
</svg>