<svg width="40" height="40" viewBox="0 0 65 65" fill="none" xmlns="http://www.w3.org/2000/svg">
	<path opacity="0.6" d="M27.3806 10.8333C27.1639 11.6458 27.0827 12.5395 27.0827 13.5416V21.6666H13.541V16.2499C13.541 13.2708 15.9785 10.8333 18.9577 10.8333H27.3806Z" fill="#A61517" />
	<path d="M27.0827 51.4584V21.6667H13.541C8.12435 21.6667 5.41602 24.3751 5.41602 29.7917V51.4584C5.41602 56.8751 8.12435 59.5834 13.541 59.5834H35.2077C29.791 59.5834 27.0827 56.8751 27.0827 51.4584ZM18.2806 46.0417C18.2806 47.1522 17.3598 48.073 16.2493 48.073C15.1389 48.073 14.2181 47.1522 14.2181 46.0417V35.2084C14.2181 34.098 15.1389 33.1772 16.2493 33.1772C17.3598 33.1772 18.2806 34.098 18.2806 35.2084V46.0417Z" fill="#A61517" />
	<path opacity="0.4" d="M37.9173 59.5834H35.209C29.7923 59.5834 27.084 56.8751 27.084 51.4584V13.5417C27.084 8.12508 29.7923 5.41675 35.209 5.41675H51.459C56.8757 5.41675 59.584 8.12508 59.584 13.5417V51.4584C59.584 56.8751 56.8757 59.5834 51.459 59.5834H48.7507" fill="#A61517" />
	<path d="M48.7493 48.7501V59.5834H37.916V48.7501C37.916 47.2605 39.1348 46.0417 40.6243 46.0417H46.041C47.5306 46.0417 48.7493 47.2605 48.7493 48.7501Z" fill="#A61517" />
	<path d="M37.916 37.2397C36.8056 37.2397 35.8848 36.3188 35.8848 35.2084V21.6667C35.8848 20.5563 36.8056 19.6355 37.916 19.6355C39.0264 19.6355 39.9473 20.5563 39.9473 21.6667V35.2084C39.9473 36.3188 39.0264 37.2397 37.916 37.2397Z" fill="#A61517" />
	<path d="M48.75 37.2397C47.6396 37.2397 46.7188 36.3188 46.7188 35.2084V21.6667C46.7188 20.5563 47.6396 19.6355 48.75 19.6355C49.8604 19.6355 50.7812 20.5563 50.7812 21.6667V35.2084C50.7812 36.3188 49.8604 37.2397 48.75 37.2397Z" fill="#A61517" />
</svg>
