<svg width="40" height="40" viewBox="0 0 67 67" fill="none" xmlns="http://www.w3.org/2000/svg">
	<path opacity="0.4" d="M45.1977 5.5835H21.8036C11.6419 5.5835 5.58398 11.6414 5.58398 21.8031V45.1693C5.58398 55.3589 11.6419 61.4168 21.8036 61.4168H45.1698C55.3315 61.4168 61.3894 55.3589 61.3894 45.1972V21.8031C61.4173 11.6414 55.3594 5.5835 45.1977 5.5835Z" fill="#A61517" />
	<path d="M49.8314 37.7711C49.608 37.2686 49.2172 36.8498 48.6868 36.6265C48.4355 36.5148 48.1564 36.459 47.8772 36.459H19.123C17.9785 36.459 17.0293 37.4082 17.0293 38.5527C17.0293 39.6973 17.9785 40.6465 19.123 40.6465H42.8522L37.9389 45.5598C37.1293 46.3694 37.1293 47.7094 37.9389 48.519C38.3576 48.9377 38.888 49.1332 39.4185 49.1332C39.9489 49.1332 40.4793 48.9377 40.898 48.519L49.3847 40.0323C49.5801 39.8369 49.7197 39.6136 49.8314 39.3623C50.0268 38.8598 50.0268 38.2736 49.8314 37.7711Z" fill="#A61517" />
	<path d="M17.168 29.2286C17.3914 29.7311 17.7822 30.1499 18.3126 30.3732C18.5639 30.4849 18.843 30.5407 19.1222 30.5407H47.9043C49.0489 30.5407 49.998 29.5916 49.998 28.447C49.998 27.3024 49.0489 26.3532 47.9043 26.3532H24.1751L29.0885 21.4399C29.898 20.6303 29.898 19.2903 29.0885 18.4807C28.2789 17.6711 26.9389 17.6711 26.1293 18.4807L17.6426 26.9395C17.4472 27.1349 17.2797 27.3861 17.168 27.6374C16.9726 28.1399 16.9726 28.7261 17.168 29.2286Z" fill="#A61517" />
</svg>
