<svg xmlns="http://www.w3.org/2000/svg" width="18" height="18" viewBox="0 0 20 20" fill="none">
    <path d="M20 13V7C20 5.34 18.66 4 17 4H3C1.34 4 0 5.34 0 7V13C0 14.66 1.34 16 3 16H17C18.66 16 20 14.66 20 13Z" fill="#A61517" />
    <path d="M3.92923 17.5H16.0692C16.3892 17.5 16.6192 17.79 16.5592 18.1C16.2892 19.58 15.4192 20 13.3292 20H6.66923C4.56923 20 3.70923 19.58 3.43923 18.1C3.37923 17.79 3.60923 17.5 3.92923 17.5Z" fill="#A61517" />
    <path d="M6.66923 0H13.3292C15.4292 0 16.2892 0.42 16.5592 1.9C16.6192 2.21 16.3792 2.5 16.0692 2.5H3.92923C3.60923 2.5 3.37923 2.21 3.43923 1.9C3.70923 0.42 4.56923 0 6.66923 0Z" fill="#A61517" />
</svg>