<svg width="1204" height="1189" viewBox="0 0 1204 1189" fill="none" xmlns="http://www.w3.org/2000/svg">
	<path d="M652.727 280.176L653.28 279.639L652.727 279.101L595.664 223.598L595.141 223.09L594.618 223.598L537.555 279.101L537.002 279.639L537.555 280.176L594.618 335.679L595.141 336.187L595.664 335.679L652.727 280.176ZM595.141 1.04626L879.503 277.631L595.138 556.651L309.278 279.091L595.141 1.04626Z" stroke="#A61517" stroke-opacity="0.27" stroke-width="1.5" />
	<path d="M279.011 323.908L395.164 432.882L278.749 541.996L162.536 433.072L279.011 323.908Z" stroke="#A61517" stroke-opacity="0.27" stroke-width="1.5" />
	<path d="M866.793 597.137L866.246 597.672L866.793 598.208L922.507 652.771L923.032 653.285L923.556 652.771L979.27 598.208L979.817 597.672L979.27 597.137L923.556 542.574L923.032 542.06L922.507 542.574L866.793 597.137ZM646.818 597.403L923.145 323.932L1202.38 597.398L870.641 922.279C874.061 906.963 877.07 884.956 873.599 862.632C869.882 838.713 860.856 820.381 852.756 808.026C848.705 801.849 844.886 797.165 842.075 794.021C840.67 792.449 839.516 791.262 838.712 790.466C838.309 790.068 837.994 789.768 837.779 789.566C837.671 789.465 837.588 789.389 837.532 789.337C837.503 789.312 837.482 789.292 837.467 789.279L837.461 789.273L646.818 597.403Z" stroke="#A61517" stroke-opacity="0.27" stroke-width="1.5" />
	<path d="M780.852 811.147L780.858 811.153L780.864 811.159L781.237 810.764C780.864 811.159 780.864 811.159 780.864 811.159L780.865 811.16L780.869 811.164L780.889 811.183C780.906 811.199 780.933 811.225 780.968 811.258C781.038 811.326 781.143 811.429 781.281 811.564C781.557 811.836 781.964 812.242 782.483 812.776C783.521 813.844 785.009 815.425 786.802 817.468C790.39 821.554 795.198 827.488 800.073 834.872C809.83 849.65 819.819 870.18 820.891 893.299C822.74 933.186 813.106 967.349 804.762 988.874L603.377 1187.73L323.983 911.839L490.563 747.35L491.104 746.817L490.563 746.283L323.945 581.757L436.42 470.696L780.852 811.147ZM602.326 967.555L602.758 967.981L603.265 967.647L602.852 967.021C603.265 967.647 603.265 967.647 603.266 967.647L603.267 967.646L603.272 967.643L603.288 967.632L603.309 967.618L603.348 967.591C603.4 967.556 603.475 967.504 603.572 967.436C603.765 967.298 604.046 967.094 604.401 966.822C605.112 966.277 606.122 965.46 607.33 964.359C609.748 962.159 612.964 958.825 616.179 954.279C622.612 945.181 629.031 931.237 629.031 911.839C629.031 892.441 622.612 878.497 616.179 869.399C612.964 864.853 609.748 861.519 607.33 859.319C606.122 858.218 605.112 857.401 604.401 856.856C604.046 856.584 603.765 856.38 603.572 856.243C603.475 856.174 603.4 856.122 603.348 856.087C603.322 856.069 603.302 856.056 603.288 856.047L603.272 856.036L603.267 856.032L603.266 856.031C603.265 856.031 603.265 856.031 602.852 856.657L603.265 856.031L602.758 855.697L602.326 856.124L546.442 911.305L545.901 911.839L546.442 912.373L602.326 967.555Z" stroke="#A61517" stroke-opacity="0.27" stroke-width="1.5" />
	<path d="M130.836 470.7L243.95 582.988L210.876 616.052L210.345 616.582L210.876 617.113L246.864 653.09L247.395 653.62L247.925 653.09L280.478 620.553L409.875 749.91L280.229 879.517L1.06083 600.435L130.836 470.7Z" stroke="#A61517" stroke-opacity="0.27" stroke-width="1.5" />
</svg>
