<svg width="812" height="385" viewBox="0 0 812 385" fill="none" xmlns="http://www.w3.org/2000/svg">
	<path d="M276.071 193.525L276.439 193.167L276.071 192.809L264.008 181.065L263.659 180.726L263.31 181.065L251.247 192.809L250.879 193.167L251.247 193.525L263.31 205.269L263.659 205.608L264.008 205.269L276.071 193.525ZM263.659 134.698L323.285 192.743L263.657 251.301L203.717 193.051L263.659 134.698Z" fill="#A61517" stroke="#A61517" />
	<path d="M196.534 202.693L220.278 225.485L196.479 248.307L172.722 225.526L196.534 202.693Z" fill="#A61517" stroke="#A61517" />
	<path d="M391.287 260.396L322.146 328.471C322.766 325.28 323.209 321.054 322.545 316.765C321.75 311.62 319.818 307.675 318.084 305.015C317.216 303.685 316.398 302.675 315.793 301.996C315.491 301.656 315.242 301.398 315.067 301.224C314.98 301.137 314.911 301.071 314.863 301.026C314.839 301.004 314.821 300.987 314.807 300.975L314.798 300.966L274.706 260.399L332.692 202.703L391.287 260.396ZM320.528 260.098L320.166 260.454L320.528 260.81L332.316 272.417L332.667 272.762L333.018 272.417L344.806 260.81L345.168 260.454L344.806 260.098L333.018 248.491L332.667 248.146L332.316 248.491L320.528 260.098Z" fill="#A61517" stroke="#A61517" />
	<path d="M302.127 305.424L302.127 305.424L302.135 305.432L302.135 305.432L302.135 305.432L302.136 305.432L302.139 305.436L302.155 305.451C302.168 305.464 302.19 305.485 302.218 305.513C302.274 305.569 302.358 305.653 302.465 305.764C302.68 305.986 302.989 306.315 303.363 306.743C304.11 307.597 305.111 308.839 306.127 310.384C308.163 313.481 310.23 317.76 310.452 322.562C310.836 330.889 308.845 338.031 307.107 342.556L265.024 384.296L206.718 326.465L241.526 291.94L241.884 291.585L241.526 291.23L206.71 256.697L229.892 233.704L302.127 305.424ZM264.561 338.483L264.85 338.77L265.189 338.545L264.913 338.128C265.189 338.545 265.189 338.545 265.189 338.545L265.19 338.545L265.192 338.544L265.196 338.54L265.211 338.53C265.224 338.522 265.241 338.51 265.263 338.494C265.307 338.463 265.37 338.417 265.448 338.357C265.605 338.236 265.825 338.057 266.087 337.817C266.611 337.338 267.305 336.616 267.997 335.631C269.386 333.659 270.764 330.645 270.764 326.465C270.764 322.285 269.386 319.27 267.997 317.298C267.305 316.314 266.611 315.591 266.087 315.112C265.825 314.872 265.605 314.693 265.448 314.573C265.37 314.513 265.307 314.467 265.263 314.436C265.241 314.42 265.224 314.408 265.211 314.399L265.196 314.389L265.192 314.386L265.19 314.385L265.189 314.385C265.189 314.384 265.189 314.384 264.913 314.801L265.189 314.384L264.85 314.16L264.561 314.446L252.802 326.11L252.444 326.465L252.802 326.82L264.561 338.483Z" fill="#A61517" stroke="#A61517" />
	<path d="M197.38 265.432L224.293 292.336L197.328 319.293L138.707 260.691L165.7 233.706L189.164 256.998L182.404 263.756L182.05 264.109L182.404 264.463L190.023 272.08L190.376 272.433L190.73 272.08L197.38 265.432Z" fill="#A61517" stroke="#A61517" />
	<path d="M138.24 62.4808L138.609 62.1224L138.24 61.7639L126.176 50.0294L125.827 49.6903L125.479 50.0294L113.414 61.7639L113.045 62.1224L113.414 62.4808L125.479 74.2154L125.827 74.5545L126.176 74.2154L138.24 62.4808ZM125.827 3.6975L185.46 61.699L125.825 120.212L65.8787 62.0064L125.827 3.6975Z" stroke="#A61517" />
	<path d="M58.9896 71.9501L83.048 94.5217L58.9342 117.123L34.8634 94.5621L58.9896 71.9501Z" stroke="#A61517" />
	<path d="M137.236 129.308L195.177 71.9663L253.725 129.305L184.639 196.961C185.259 193.79 185.7 189.591 185.037 185.329C184.243 180.214 182.312 176.293 180.579 173.649C179.712 172.327 178.894 171.323 178.29 170.648C177.988 170.31 177.739 170.054 177.564 169.881C177.477 169.795 177.408 169.729 177.36 169.684C177.336 169.662 177.318 169.645 177.305 169.633L177.295 169.625L137.236 129.308ZM183.022 129.005L182.657 129.363L183.022 129.72L194.801 141.256L195.151 141.598L195.501 141.256L207.28 129.72L207.645 129.363L207.28 129.005L195.501 117.469L195.151 117.127L194.801 117.469L183.022 129.005Z" stroke="#A61517" />
	<path d="M164.851 174.739L164.851 174.739L164.859 174.746L164.859 174.747L164.859 174.747L164.859 174.747L164.863 174.75L164.878 174.765C164.892 174.779 164.914 174.8 164.942 174.828C164.999 174.883 165.083 174.967 165.191 175.078C165.407 175.301 165.717 175.63 166.093 176.058C166.843 176.913 167.85 178.155 168.87 179.7C170.915 182.798 172.993 187.078 173.215 191.881C173.601 200.21 171.601 207.354 169.854 211.88L127.568 253.634L68.9837 195.785L103.957 161.251L104.317 160.895L103.957 160.539L68.9758 125.998L92.2696 102.996L164.851 174.739ZM127.106 207.807L127.394 208.092L127.733 207.869L127.458 207.452C127.733 207.869 127.733 207.869 127.733 207.869L127.734 207.868L127.735 207.867L127.74 207.864L127.755 207.854C127.767 207.846 127.785 207.833 127.807 207.818C127.851 207.786 127.914 207.741 127.993 207.681C128.15 207.56 128.371 207.381 128.634 207.141C129.161 206.662 129.858 205.939 130.554 204.955C131.949 202.982 133.334 199.967 133.334 195.785C133.334 191.603 131.949 188.587 130.554 186.615C129.858 185.63 129.161 184.907 128.634 184.428C128.371 184.189 128.15 184.01 127.993 183.889C127.914 183.829 127.851 183.783 127.807 183.752C127.785 183.736 127.767 183.724 127.755 183.715L127.74 183.705L127.735 183.702L127.734 183.701L127.733 183.701C127.733 183.701 127.733 183.7 127.458 184.118L127.733 183.7L127.394 183.478L127.106 183.762L115.291 195.429L114.931 195.785L115.291 196.141L127.106 207.807Z" stroke="#A61517" />
	<path d="M59.2997 134.683L86.1746 161.549L59.2472 188.468L0.707216 129.946L27.6628 102.999L51.0932 126.258L44.3429 133.007L43.9892 133.36L44.3429 133.714L51.9517 141.32L52.3052 141.674L52.6587 141.321L59.2997 134.683Z" stroke="#A61517" />
	<path d="M408.924 61.6086L409.296 61.2539L408.932 60.8918L396.985 49.0369L396.64 48.6943L396.288 49.0299L384.106 60.643L383.734 60.9977L384.099 61.3598L396.046 73.2147L396.391 73.5573L396.743 73.2217L408.924 61.6086ZM397.101 2.70387L456.149 61.3001L395.931 119.213L336.571 60.409L397.101 2.70387Z" stroke="#A61517" />
	<path d="M329.583 70.2831L353.414 93.0947L329.075 115.453L305.231 92.6522L329.583 70.2831Z" stroke="#A61517" />
	<path d="M407.251 128.422L465.763 71.6639L523.733 129.586L453.973 196.547C454.625 193.382 455.108 189.187 454.488 184.919C453.744 179.797 451.853 175.857 450.146 173.195C449.293 171.865 448.485 170.853 447.888 170.171C447.589 169.83 447.343 169.572 447.17 169.397C447.083 169.31 447.015 169.244 446.968 169.198C446.944 169.176 446.926 169.158 446.913 169.146L446.904 169.138L407.251 128.422ZM453.037 128.578L452.669 128.932L453.03 129.293L464.693 140.946L465.039 141.292L465.393 140.953L477.287 129.536L477.655 129.182L477.294 128.821L465.631 117.168L465.285 116.822L464.931 117.161L453.037 128.578Z" stroke="#A61517" />
	<path d="M434.409 174.128L434.409 174.128L434.416 174.135L434.416 174.135L434.416 174.135L434.417 174.136L434.42 174.139L434.436 174.154C434.45 174.168 434.471 174.189 434.499 174.217C434.555 174.273 434.638 174.358 434.745 174.47C434.959 174.695 435.266 175.028 435.637 175.459C436.379 176.321 437.373 177.573 438.378 179.129C440.392 182.247 442.426 186.548 442.601 191.352C442.903 199.685 440.832 206.809 439.039 211.317L396.337 252.645L338.335 194.212L373.653 160.03L374.017 159.678L373.66 159.318L339.027 124.428L362.55 101.661L434.409 174.128ZM396.334 206.816L396.62 207.103L396.96 206.884L396.689 206.464C396.96 206.884 396.96 206.884 396.961 206.884L396.961 206.883L396.963 206.882L396.967 206.879L396.983 206.869C396.995 206.861 397.013 206.849 397.035 206.834C397.08 206.803 397.143 206.758 397.222 206.698C397.381 206.579 397.603 206.402 397.869 206.165C398.4 205.692 399.105 204.976 399.81 203.998C401.225 202.04 402.64 199.038 402.682 194.856C402.724 190.675 401.369 187.645 399.994 185.659C399.308 184.668 398.618 183.938 398.097 183.453C397.836 183.211 397.617 183.03 397.461 182.908C397.382 182.847 397.32 182.801 397.276 182.769C397.254 182.753 397.237 182.741 397.224 182.732L397.21 182.722L397.205 182.718L397.203 182.717L397.203 182.717C397.202 182.717 397.202 182.717 396.923 183.131L397.202 182.717L396.866 182.491L396.575 182.772L384.644 194.32L384.28 194.672L384.637 195.031L396.334 206.816Z" stroke="#A61517" />
	<path d="M329.264 133.015L355.868 160.15L328.673 186.798L270.722 127.692L297.946 101.017L321.142 124.51L314.325 131.19L313.968 131.54L314.318 131.897L321.85 139.579L322.2 139.936L322.557 139.586L329.264 133.015Z" stroke="#A61517" />
	<path d="M799.071 192.525L799.439 192.167L799.071 191.809L787.008 180.065L786.659 179.726L786.31 180.065L774.247 191.809L773.879 192.167L774.247 192.525L786.31 204.269L786.659 204.608L787.008 204.269L799.071 192.525ZM786.659 133.698L846.285 191.743L786.657 250.301L726.717 192.051L786.659 133.698Z" stroke="#A61517" />
	<path d="M720.034 202.679L744.262 224.985L719.978 247.321L695.739 225.025L720.034 202.679Z" stroke="#A61517" />
	<path d="M797.709 259.943L855.692 202.701L914.284 259.94L845.147 327.48C845.767 324.313 846.208 320.121 845.545 315.867C844.75 310.761 842.818 306.846 841.083 304.207C840.215 302.887 839.396 301.885 838.792 301.21C838.49 300.873 838.241 300.618 838.066 300.445C837.978 300.359 837.91 300.293 837.862 300.249C837.838 300.226 837.819 300.209 837.806 300.197L837.797 300.189L797.709 259.943ZM843.529 259.64L843.163 259.998L843.529 260.355L855.318 271.871L855.667 272.212L856.016 271.871L867.805 260.355L868.171 259.998L867.805 259.64L856.016 248.124L855.667 247.783L855.318 248.124L843.529 259.64Z" stroke="#A61517" />
	<path d="M825.127 305.424L825.127 305.424L825.135 305.432L825.135 305.432L825.135 305.432L825.136 305.432L825.139 305.436L825.155 305.451C825.168 305.464 825.19 305.485 825.218 305.513C825.274 305.569 825.358 305.653 825.465 305.764C825.68 305.986 825.989 306.315 826.363 306.743C827.11 307.597 828.111 308.839 829.127 310.384C831.163 313.481 833.23 317.76 833.452 322.562C833.836 330.889 831.845 338.031 830.107 342.556L788.024 384.296L729.718 326.465L764.526 291.94L764.884 291.585L764.526 291.23L729.71 256.697L752.892 233.704L825.127 305.424ZM787.561 338.483L787.85 338.77L788.189 338.545L787.913 338.128C788.189 338.545 788.189 338.545 788.189 338.545L788.19 338.545L788.192 338.544L788.196 338.54L788.211 338.53C788.224 338.522 788.241 338.51 788.263 338.494C788.307 338.463 788.37 338.417 788.448 338.357C788.605 338.236 788.825 338.057 789.087 337.817C789.611 337.338 790.305 336.616 790.997 335.631C792.386 333.659 793.764 330.645 793.764 326.465C793.764 322.285 792.386 319.27 790.997 317.298C790.305 316.314 789.611 315.591 789.087 315.112C788.825 314.872 788.605 314.693 788.448 314.573C788.37 314.513 788.307 314.467 788.263 314.436C788.241 314.42 788.224 314.408 788.211 314.399L788.196 314.389L788.192 314.386L788.19 314.385L788.189 314.385C788.189 314.384 788.189 314.384 787.913 314.801L788.189 314.384L787.85 314.16L787.561 314.446L775.802 326.11L775.444 326.465L775.802 326.82L787.561 338.483Z" stroke="#A61517" />
	<path d="M720.38 265.432L747.293 292.336L720.328 319.293L661.707 260.691L688.7 233.706L712.164 256.998L705.404 263.756L705.05 264.109L705.404 264.463L713.023 272.08L713.376 272.433L713.73 272.08L720.38 265.432Z" stroke="#A61517" />
	<path d="M663.345 62.4613L663.713 62.1028L663.345 61.7444L651.28 50.0098L650.931 49.6707L650.583 50.0098L638.518 61.7444L638.15 62.1028L638.518 62.4613L650.583 74.1958L650.931 74.5349L651.28 74.1958L663.345 62.4613ZM650.931 3.67797L710.564 61.6795L650.93 120.193L590.983 61.9868L650.931 3.67797Z" stroke="#A61517" />
	<path d="M584.094 71.9306L608.152 94.5022L584.038 117.104L559.968 94.5426L584.094 71.9306Z" stroke="#A61517" />
	<path d="M662.341 129.288L720.281 71.9468L778.829 129.285L709.743 196.942C710.363 193.77 710.804 189.571 710.142 185.309C709.347 180.195 707.417 176.274 705.683 173.63C704.816 172.308 703.998 171.304 703.394 170.628C703.092 170.29 702.843 170.034 702.668 169.862C702.581 169.775 702.512 169.709 702.464 169.665C702.441 169.642 702.422 169.625 702.409 169.613L702.4 169.605L662.341 129.288ZM708.126 128.986L707.762 129.343L708.126 129.7L719.906 141.236L720.256 141.579L720.605 141.236L732.385 129.7L732.749 129.343L732.385 128.986L720.605 117.45L720.256 117.107L719.906 117.45L708.126 128.986Z" stroke="#A61517" />
	<path d="M689.955 174.719L689.955 174.719L689.963 174.727L689.963 174.727L689.963 174.727L689.964 174.728L689.967 174.731L689.983 174.746C689.997 174.759 690.018 174.78 690.047 174.808C690.103 174.864 690.187 174.948 690.295 175.059C690.511 175.281 690.822 175.611 691.197 176.038C691.947 176.893 692.954 178.135 693.974 179.681C696.02 182.778 698.097 187.059 698.32 191.861C698.706 200.19 696.705 207.334 694.959 211.861L652.673 253.614L594.088 195.765L629.061 161.231L629.421 160.876L629.061 160.52L594.08 125.978L617.374 102.977L689.955 174.719ZM652.211 207.788L652.499 208.072L652.837 207.85L652.562 207.432C652.837 207.85 652.837 207.85 652.837 207.849L652.838 207.849L652.84 207.848L652.844 207.845L652.859 207.835C652.872 207.826 652.889 207.814 652.911 207.798C652.956 207.767 653.018 207.721 653.097 207.661C653.254 207.54 653.475 207.361 653.738 207.122C654.265 206.643 654.962 205.92 655.658 204.935C657.053 202.963 658.438 199.947 658.438 195.765C658.438 191.583 657.053 188.568 655.658 186.595C654.962 185.611 654.265 184.888 653.738 184.409C653.475 184.169 653.254 183.99 653.097 183.87C653.018 183.809 652.956 183.764 652.911 183.732C652.889 183.717 652.872 183.704 652.859 183.696L652.844 183.686L652.84 183.683L652.838 183.682L652.837 183.681C652.837 183.681 652.837 183.681 652.562 184.098L652.837 183.681L652.499 183.458L652.211 183.743L640.395 195.409L640.035 195.765L640.395 196.121L652.211 207.788Z" stroke="#A61517" />
	<path d="M584.404 134.663L611.279 161.53L584.351 188.449L525.811 129.927L552.767 102.98L576.197 126.239L569.447 132.987L569.093 133.341L569.447 133.694L577.056 141.301L577.409 141.654L577.763 141.301L584.404 134.663Z" stroke="#A61517" />
	<path d="M852.368 132.27L878.973 159.405L851.777 186.053L793.826 126.947L821.051 100.272L844.247 123.764L837.429 130.445L837.072 130.795L837.422 131.152L844.954 138.834L845.304 139.191L845.661 138.841L852.368 132.27Z" stroke="#A61517" />
</svg>
